<svg width="840" height="145" viewBox="0 0 840 145" fill="none" xmlns="http://www.w3.org/2000/svg">
<path opacity="0.04" d="M35.6 114.4H34.6V115.4H35.6V114.4ZM35.6 83.4V82.4H34.6V83.4H35.6ZM35.6 58.4H34.6V59.4H35.6V58.4ZM35.6 29V28H34.6V29H35.6ZM86.4 70L86.1178 69.0406L86.197 70.9792L86.4 70ZM1.4 1.6V0.599998H0.400001V1.6H1.4ZM1.4 142H0.400001V143H1.4V142ZM77.8 99.2C77.8 103.965 76.2382 107.457 73.4367 109.78C70.6048 112.129 66.3659 113.4 60.8 113.4V115.4C66.6342 115.4 71.3952 114.071 74.7133 111.32C78.0618 108.543 79.8 104.435 79.8 99.2H77.8ZM60.8 113.4H35.6V115.4H60.8V113.4ZM36.6 114.4V83.4H34.6V114.4H36.6ZM35.6 84.4H60.4V82.4H35.6V84.4ZM60.4 84.4C65.9416 84.4 70.2852 85.81 73.2272 88.3118C76.1476 90.7953 77.8 94.4498 77.8 99.2H79.8C79.8 93.9502 77.9524 89.7047 74.5228 86.7882C71.1148 83.89 66.2584 82.4 60.4 82.4V84.4ZM74.4 43.8C74.4 48.3717 72.934 51.7108 70.2611 53.9307C67.5569 56.1765 63.4705 57.4 58 57.4V59.4C63.7295 59.4 68.3431 58.1235 71.5389 55.4693C74.766 52.7892 76.4 48.8282 76.4 43.8H74.4ZM58 57.4H35.6V59.4H58V57.4ZM36.6 58.4V29H34.6V58.4H36.6ZM35.6 30H58V28H35.6V30ZM58 30C63.4621 30 67.5474 31.2696 70.2535 33.5629C72.9329 35.8335 74.4 39.2271 74.4 43.8H76.4C76.4 38.7729 74.7671 34.7664 71.5465 32.0371C68.3526 29.3304 63.738 28 58 28V30ZM114.4 103.8C114.4 87.362 103.502 72.5242 86.603 69.0208L86.197 70.9792C102.098 74.2758 112.4 88.238 112.4 103.8H114.4ZM86.6822 70.9594C100.664 66.8469 111.2 55.4872 111.2 38H109.2C109.2 54.5128 99.3356 65.153 86.1178 69.0406L86.6822 70.9594ZM111.2 38C111.2 26.6217 106.831 17.2266 98.7536 10.6973C90.7001 4.18754 79.0539 0.599998 64.6 0.599998V2.6C78.7461 2.6 89.8999 6.11245 97.4964 12.2527C105.069 18.3734 109.2 27.1783 109.2 38H111.2ZM64.6 0.599998H1.4V2.6H64.6V0.599998ZM0.400001 1.6V142H2.4V1.6H0.400001ZM1.4 143H66.8V141H1.4V143ZM66.8 143C81.7585 143 93.6609 139.21 101.842 132.367C110.043 125.507 114.4 115.663 114.4 103.8H112.4C112.4 115.137 108.257 124.393 100.558 130.833C92.8391 137.29 81.4415 141 66.8 141V143ZM249.036 142L248.089 142.321L248.319 143H249.036V142ZM285.236 142V143H286.661L286.176 141.66L285.236 142ZM234.436 1.6L235.376 1.25976L235.138 0.599998H234.436V1.6ZM194.836 1.6V0.599998H194.134L193.896 1.25976L194.836 1.6ZM144.036 142L143.096 141.66L142.611 143H144.036V142ZM179.836 142V143H180.553L180.783 142.321L179.836 142ZM188.236 117.2V116.2H187.519L187.289 116.879L188.236 117.2ZM240.636 117.2L241.583 116.879L241.353 116.2H240.636V117.2ZM231.836 90.8V91.8H233.23L232.783 90.4794L231.836 90.8ZM197.236 90.8L196.288 90.4827L195.847 91.8H197.236V90.8ZM214.436 39.4L215.383 39.0794L214.43 36.2651L213.488 39.0827L214.436 39.4ZM249.036 143H285.236V141H249.036V143ZM286.176 141.66L235.376 1.25976L233.496 1.94023L284.296 142.34L286.176 141.66ZM234.436 0.599998H194.836V2.6H234.436V0.599998ZM193.896 1.25976L143.096 141.66L144.976 142.34L195.776 1.94023L193.896 1.25976ZM144.036 143H179.836V141H144.036V143ZM180.783 142.321L189.183 117.521L187.289 116.879L178.889 141.679L180.783 142.321ZM188.236 118.2H240.636V116.2H188.236V118.2ZM239.689 117.521L248.089 142.321L249.983 141.679L241.583 116.879L239.689 117.521ZM231.836 89.8H197.236V91.8H231.836V89.8ZM198.184 91.1173L215.384 39.7173L213.488 39.0827L196.288 90.4827L198.184 91.1173ZM213.489 39.7206L230.889 91.1207L232.783 90.4794L215.383 39.0794L213.489 39.7206ZM412.097 1.6V0.599998H411.097V1.6H412.097ZM412.097 88.6L411.261 89.1494L413.097 91.9412V88.6H412.097ZM354.897 1.6L355.732 1.05063L355.436 0.599998H354.897V1.6ZM320.697 1.6V0.599998H319.697V1.6H320.697ZM320.697 142H319.697V143H320.697V142ZM354.897 142V143H355.897V142H354.897ZM354.897 55.4L355.731 54.8489L353.897 52.0716V55.4H354.897ZM412.097 142L411.262 142.551L411.559 143H412.097V142ZM446.297 142V143H447.297V142H446.297ZM446.297 1.6H447.297V0.599998H446.297V1.6ZM411.097 1.6V88.6H413.097V1.6H411.097ZM412.932 88.0506L355.732 1.05063L354.061 2.14937L411.261 89.1494L412.932 88.0506ZM354.897 0.599998H320.697V2.6H354.897V0.599998ZM319.697 1.6V142H321.697V1.6H319.697ZM320.697 143H354.897V141H320.697V143ZM355.897 142V55.4H353.897V142H355.897ZM354.062 55.9511L411.262 142.551L412.931 141.449L355.731 54.8489L354.062 55.9511ZM412.097 143H446.297V141H412.097V143ZM447.297 142V1.6H445.297V142H447.297ZM446.297 0.599998H412.097V2.6H446.297V0.599998ZM483.487 29H482.487V30H483.487V29ZM520.688 29H521.688V28H520.688V29ZM520.688 142H519.688V143H520.688V142ZM554.888 142V143H555.888V142H554.888ZM554.888 29V28H553.888V29H554.888ZM592.088 29V30H593.088V29H592.088ZM592.088 1.6H593.088V0.599998H592.088V1.6ZM483.487 1.6V0.599998H482.487V1.6H483.487ZM483.487 30H520.688V28H483.487V30ZM519.688 29V142H521.688V29H519.688ZM520.688 143H554.888V141H520.688V143ZM555.888 142V29H553.888V142H555.888ZM554.888 30H592.088V28H554.888V30ZM593.088 29V1.6H591.088V29H593.088ZM592.088 0.599998H483.487V2.6H592.088V0.599998ZM482.487 1.6V29H484.487V1.6H482.487ZM746.252 1.6H747.252V0.599998H746.252V1.6ZM712.052 1.6V0.599998H711.052V1.6H712.052ZM662.852 1.6H663.852V0.599998H662.852V1.6ZM628.652 1.6V0.599998H627.652V1.6H628.652ZM627.652 85.4C627.652 105.029 634.084 119.813 644.747 129.684C655.398 139.543 670.161 144.4 686.652 144.4V142.4C670.542 142.4 656.305 137.657 646.106 128.216C635.919 118.787 629.652 104.571 629.652 85.4H627.652ZM686.652 144.4C703.041 144.4 718.196 139.543 729.266 129.697C740.354 119.835 747.252 105.051 747.252 85.4H745.252C745.252 104.549 738.549 118.765 727.937 128.203C717.308 137.657 702.662 142.4 686.652 142.4V144.4ZM747.252 85.4V1.6H745.252V85.4H747.252ZM746.252 0.599998H712.052V2.6H746.252V0.599998ZM711.052 1.6V85.6H713.052V1.6H711.052ZM711.052 85.6C711.052 93.7374 708.944 100.01 704.995 104.243C701.057 108.465 695.152 110.8 687.252 110.8V112.8C695.551 112.8 702.047 110.335 706.458 105.607C710.859 100.89 713.052 94.0627 713.052 85.6H711.052ZM687.252 110.8C679.352 110.8 673.553 108.465 669.716 104.252C665.865 100.022 663.852 93.7488 663.852 85.6H661.852C661.852 94.0512 663.939 100.878 668.237 105.598C672.55 110.335 678.951 112.8 687.252 112.8V110.8ZM663.852 85.6V1.6H661.852V85.6H663.852ZM662.852 0.599998H628.652V2.6H662.852V0.599998ZM627.652 1.6V85.4H629.652V1.6H627.652ZM790.267 1.6V0.599998H789.267V1.6H790.267ZM790.267 142H789.267V143H790.267V142ZM869.267 142V143H870.267V142H869.267ZM869.267 115.6H870.267V114.6H869.267V115.6ZM824.467 115.6H823.467V116.6H824.467V115.6ZM824.467 1.6H825.467V0.599998H824.467V1.6ZM789.267 1.6V142H791.267V1.6H789.267ZM790.267 143H869.267V141H790.267V143ZM870.267 142V115.6H868.267V142H870.267ZM869.267 114.6H824.467V116.6H869.267V114.6ZM825.467 115.6V1.6H823.467V115.6H825.467ZM824.467 0.599998H790.267V2.6H824.467V0.599998Z" fill="#2D303E"/>
</svg>
