<svg width="768" height="143" viewBox="0 0 768 143" fill="none" xmlns="http://www.w3.org/2000/svg">
<path opacity="0.04" d="M35.6 114.4H34.6V115.4H35.6V114.4ZM35.6 83.4V82.4H34.6V83.4H35.6ZM35.6 58.4H34.6V59.4H35.6V58.4ZM35.6 29V28H34.6V29H35.6ZM86.4 70L86.1178 69.0406L86.197 70.9792L86.4 70ZM1.4 1.6V0.599998H0.400001V1.6H1.4ZM1.4 142H0.400001V143H1.4V142ZM77.8 99.2C77.8 103.965 76.2382 107.457 73.4367 109.78C70.6048 112.129 66.3659 113.4 60.8 113.4V115.4C66.6342 115.4 71.3952 114.071 74.7133 111.32C78.0618 108.543 79.8 104.435 79.8 99.2H77.8ZM60.8 113.4H35.6V115.4H60.8V113.4ZM36.6 114.4V83.4H34.6V114.4H36.6ZM35.6 84.4H60.4V82.4H35.6V84.4ZM60.4 84.4C65.9416 84.4 70.2852 85.81 73.2272 88.3118C76.1476 90.7953 77.8 94.4498 77.8 99.2H79.8C79.8 93.9502 77.9524 89.7047 74.5228 86.7882C71.1148 83.89 66.2584 82.4 60.4 82.4V84.4ZM74.4 43.8C74.4 48.3717 72.934 51.7108 70.2611 53.9307C67.5569 56.1765 63.4705 57.4 58 57.4V59.4C63.7295 59.4 68.3431 58.1235 71.5389 55.4693C74.766 52.7892 76.4 48.8282 76.4 43.8H74.4ZM58 57.4H35.6V59.4H58V57.4ZM36.6 58.4V29H34.6V58.4H36.6ZM35.6 30H58V28H35.6V30ZM58 30C63.4621 30 67.5474 31.2696 70.2535 33.5629C72.9329 35.8335 74.4 39.2271 74.4 43.8H76.4C76.4 38.7729 74.7671 34.7664 71.5465 32.0371C68.3526 29.3304 63.738 28 58 28V30ZM114.4 103.8C114.4 87.362 103.502 72.5242 86.603 69.0208L86.197 70.9792C102.098 74.2758 112.4 88.238 112.4 103.8H114.4ZM86.6822 70.9594C100.664 66.8469 111.2 55.4872 111.2 38H109.2C109.2 54.5128 99.3356 65.153 86.1178 69.0406L86.6822 70.9594ZM111.2 38C111.2 26.6217 106.831 17.2266 98.7536 10.6973C90.7001 4.18754 79.0539 0.599998 64.6 0.599998V2.6C78.7461 2.6 89.8999 6.11245 97.4964 12.2527C105.069 18.3734 109.2 27.1783 109.2 38H111.2ZM64.6 0.599998H1.4V2.6H64.6V0.599998ZM0.400001 1.6V142H2.4V1.6H0.400001ZM1.4 143H66.8V141H1.4V143ZM66.8 143C81.7585 143 93.6609 139.21 101.842 132.367C110.043 125.507 114.4 115.663 114.4 103.8H112.4C112.4 115.137 108.257 124.393 100.558 130.833C92.8391 137.29 81.4415 141 66.8 141V143ZM239.236 1.6H240.236V0.599998H239.236V1.6ZM153.236 1.6V0.599998H152.236V1.6H153.236ZM153.236 142H152.236V143H153.236V142ZM239.236 142V143H240.236V142H239.236ZM239.236 114.6H240.236V113.6H239.236V114.6ZM187.436 114.6H186.436V115.6H187.436V114.6ZM187.436 83.8V82.8H186.436V83.8H187.436ZM233.236 83.8V84.8H234.236V83.8H233.236ZM233.236 57.4H234.236V56.4H233.236V57.4ZM187.436 57.4H186.436V58.4H187.436V57.4ZM187.436 29V28H186.436V29H187.436ZM239.236 29V30H240.236V29H239.236ZM239.236 0.599998H153.236V2.6H239.236V0.599998ZM152.236 1.6V142H154.236V1.6H152.236ZM153.236 143H239.236V141H153.236V143ZM240.236 142V114.6H238.236V142H240.236ZM239.236 113.6H187.436V115.6H239.236V113.6ZM188.436 114.6V83.8H186.436V114.6H188.436ZM187.436 84.8H233.236V82.8H187.436V84.8ZM234.236 83.8V57.4H232.236V83.8H234.236ZM233.236 56.4H187.436V58.4H233.236V56.4ZM188.436 57.4V29H186.436V57.4H188.436ZM187.436 30H239.236V28H187.436V30ZM240.236 29V1.6H238.236V29H240.236ZM315.639 64.8H314.639V65.8H315.639V64.8ZM315.639 30V29H314.639V30H315.639ZM281.439 1.6V0.599998H280.439V1.6H281.439ZM281.439 142H280.439V143H281.439V142ZM315.639 142V143H316.639V142H315.639ZM315.639 89V88H314.639V89H315.639ZM323.839 89L324.715 88.5174L324.43 88H323.839V89ZM353.039 142L352.163 142.483L352.448 143H353.039V142ZM391.639 142V143H393.379L392.503 141.497L391.639 142ZM359.239 86.4L358.955 85.4412L357.734 85.803L358.375 86.9035L359.239 86.4ZM354.639 47.2C354.639 52.5239 353.19 56.629 350.341 59.4093C347.488 62.1931 343.077 63.8 336.839 63.8V65.8C343.401 65.8 348.39 64.1069 351.737 60.8407C355.088 57.571 356.639 52.8761 356.639 47.2H354.639ZM336.839 63.8H315.639V65.8H336.839V63.8ZM316.639 64.8V30H314.639V64.8H316.639ZM315.639 31H336.839V29H315.639V31ZM336.839 31C343.069 31 347.486 32.6529 350.344 35.4186C353.198 38.1805 354.639 42.19 354.639 47.2H356.639C356.639 41.81 355.08 37.2194 351.734 33.9814C348.392 30.7471 343.409 29 336.839 29V31ZM280.439 1.6V142H282.439V1.6H280.439ZM281.439 143H315.639V141H281.439V143ZM316.639 142V89H314.639V142H316.639ZM315.639 90H323.839V88H315.639V90ZM322.963 89.4825L352.163 142.483L353.915 141.517L324.715 88.5174L322.963 89.4825ZM353.039 143H391.639V141H353.039V143ZM392.503 141.497L360.103 85.8965L358.375 86.9035L390.775 142.503L392.503 141.497ZM359.523 87.3588C381.582 80.8228 391.439 63.8061 391.439 45.8H389.439C389.439 62.9939 380.096 79.1772 358.955 85.4412L359.523 87.3588ZM391.439 45.8C391.439 33.359 387.049 22.0306 378.22 13.8178C369.395 5.60801 356.23 0.599998 338.839 0.599998V2.6C355.848 2.6 368.483 7.49198 376.858 15.2822C385.229 23.0694 389.439 33.841 389.439 45.8H391.439ZM338.839 0.599998H281.439V2.6H338.839V0.599998ZM431.908 142H430.908V143H431.908V142ZM466.108 142V143H467.108V142H466.108ZM466.108 1.6H467.108V0.599998H466.108V1.6ZM431.908 1.6V0.599998H430.908V1.6H431.908ZM431.908 143H466.108V141H431.908V143ZM467.108 142V1.6H465.108V142H467.108ZM466.108 0.599998H431.908V2.6H466.108V0.599998ZM430.908 1.6V142H432.908V1.6H430.908ZM503.292 29H502.292V30H503.292V29ZM540.492 29H541.492V28H540.492V29ZM540.492 142H539.492V143H540.492V142ZM574.692 142V143H575.692V142H574.692ZM574.692 29V28H573.692V29H574.692ZM611.892 29V30H612.892V29H611.892ZM611.892 1.6H612.892V0.599998H611.892V1.6ZM503.292 1.6V0.599998H502.292V1.6H503.292ZM503.292 30H540.492V28H503.292V30ZM539.492 29V142H541.492V29H539.492ZM540.492 143H574.692V141H540.492V143ZM575.692 142V29H573.692V142H575.692ZM574.692 30H611.892V28H574.692V30ZM612.892 29V1.6H610.892V29H612.892ZM611.892 0.599998H503.292V2.6H611.892V0.599998ZM502.292 1.6V29H504.292V1.6H502.292ZM744.856 142L743.909 142.321L744.139 143H744.856V142ZM781.056 142V143H782.482L781.997 141.66L781.056 142ZM730.256 1.6L731.197 1.25976L730.958 0.599998H730.256V1.6ZM690.656 1.6V0.599998H689.955L689.716 1.25976L690.656 1.6ZM639.856 142L638.916 141.66L638.431 143H639.856V142ZM675.656 142V143H676.373L676.603 142.321L675.656 142ZM684.056 117.2V116.2H683.339L683.109 116.879L684.056 117.2ZM736.456 117.2L737.403 116.879L737.173 116.2H736.456V117.2ZM727.656 90.8V91.8H729.051L728.603 90.4794L727.656 90.8ZM693.056 90.8L692.108 90.4827L691.667 91.8H693.056V90.8ZM710.256 39.4L711.203 39.0794L710.251 36.2651L709.308 39.0827L710.256 39.4ZM744.856 143H781.056V141H744.856V143ZM781.997 141.66L731.197 1.25976L729.316 1.94023L780.116 142.34L781.997 141.66ZM730.256 0.599998H690.656V2.6H730.256V0.599998ZM689.716 1.25976L638.916 141.66L640.797 142.34L691.597 1.94023L689.716 1.25976ZM639.856 143H675.656V141H639.856V143ZM676.603 142.321L685.003 117.521L683.109 116.879L674.709 141.679L676.603 142.321ZM684.056 118.2H736.456V116.2H684.056V118.2ZM735.509 117.521L743.909 142.321L745.803 141.679L737.403 116.879L735.509 117.521ZM727.656 89.8H693.056V91.8H727.656V89.8ZM694.005 91.1173L711.205 39.7173L709.308 39.0827L692.108 90.4827L694.005 91.1173ZM709.309 39.7206L726.709 91.1207L728.603 90.4794L711.203 39.0794L709.309 39.7206Z" fill="#2D303E"/>
</svg>
