<svg width="868" height="145" viewBox="0 0 868 145" fill="none" xmlns="http://www.w3.org/2000/svg">
<path opacity="0.04" d="M35.6 114.4H34.6V115.4H35.6V114.4ZM35.6 83.4V82.4H34.6V83.4H35.6ZM35.6 58.4H34.6V59.4H35.6V58.4ZM35.6 29V28H34.6V29H35.6ZM86.4 70L86.1178 69.0406L86.197 70.9792L86.4 70ZM1.4 1.6V0.599998H0.400001V1.6H1.4ZM1.4 142H0.400001V143H1.4V142ZM77.8 99.2C77.8 103.965 76.2382 107.457 73.4367 109.78C70.6048 112.129 66.3659 113.4 60.8 113.4V115.4C66.6342 115.4 71.3952 114.071 74.7133 111.32C78.0618 108.543 79.8 104.435 79.8 99.2H77.8ZM60.8 113.4H35.6V115.4H60.8V113.4ZM36.6 114.4V83.4H34.6V114.4H36.6ZM35.6 84.4H60.4V82.4H35.6V84.4ZM60.4 84.4C65.9416 84.4 70.2852 85.81 73.2272 88.3118C76.1476 90.7953 77.8 94.4498 77.8 99.2H79.8C79.8 93.9502 77.9524 89.7047 74.5228 86.7882C71.1148 83.89 66.2584 82.4 60.4 82.4V84.4ZM74.4 43.8C74.4 48.3717 72.934 51.7108 70.2611 53.9307C67.5569 56.1765 63.4705 57.4 58 57.4V59.4C63.7295 59.4 68.3431 58.1235 71.5389 55.4693C74.766 52.7892 76.4 48.8282 76.4 43.8H74.4ZM58 57.4H35.6V59.4H58V57.4ZM36.6 58.4V29H34.6V58.4H36.6ZM35.6 30H58V28H35.6V30ZM58 30C63.4621 30 67.5474 31.2696 70.2535 33.5629C72.9329 35.8335 74.4 39.2271 74.4 43.8H76.4C76.4 38.7729 74.7671 34.7664 71.5465 32.0371C68.3526 29.3304 63.738 28 58 28V30ZM114.4 103.8C114.4 87.362 103.502 72.5242 86.603 69.0208L86.197 70.9792C102.098 74.2758 112.4 88.238 112.4 103.8H114.4ZM86.6822 70.9594C100.664 66.8469 111.2 55.4872 111.2 38H109.2C109.2 54.5128 99.3356 65.153 86.1178 69.0406L86.6822 70.9594ZM111.2 38C111.2 26.6217 106.831 17.2266 98.7536 10.6973C90.7001 4.18754 79.0539 0.599998 64.6 0.599998V2.6C78.7461 2.6 89.8999 6.11245 97.4964 12.2527C105.069 18.3734 109.2 27.1783 109.2 38H111.2ZM64.6 0.599998H1.4V2.6H64.6V0.599998ZM0.400001 1.6V142H2.4V1.6H0.400001ZM1.4 143H66.8V141H1.4V143ZM66.8 143C81.7585 143 93.6609 139.21 101.842 132.367C110.043 125.507 114.4 115.663 114.4 103.8H112.4C112.4 115.137 108.257 124.393 100.558 130.833C92.8391 137.29 81.4415 141 66.8 141V143ZM270.236 1.6H271.236V0.599998H270.236V1.6ZM236.036 1.6V0.599998H235.036V1.6H236.036ZM186.836 1.6H187.836V0.599998H186.836V1.6ZM152.636 1.6V0.599998H151.636V1.6H152.636ZM151.636 85.4C151.636 105.029 158.068 119.813 168.732 129.684C179.382 139.543 194.146 144.4 210.636 144.4V142.4C194.526 142.4 180.29 137.657 170.09 128.216C159.904 118.787 153.636 104.571 153.636 85.4H151.636ZM210.636 144.4C227.026 144.4 242.18 139.543 253.251 129.697C264.339 119.835 271.236 105.051 271.236 85.4H269.236C269.236 104.549 262.533 118.765 251.921 128.203C241.292 137.657 226.646 142.4 210.636 142.4V144.4ZM271.236 85.4V1.6H269.236V85.4H271.236ZM270.236 0.599998H236.036V2.6H270.236V0.599998ZM235.036 1.6V85.6H237.036V1.6H235.036ZM235.036 85.6C235.036 93.7374 232.929 100.01 228.98 104.243C225.041 108.465 219.136 110.8 211.236 110.8V112.8C219.536 112.8 226.031 110.335 230.442 105.607C234.843 100.89 237.036 94.0627 237.036 85.6H235.036ZM211.236 110.8C203.336 110.8 197.537 108.465 193.7 104.252C189.849 100.022 187.836 93.7488 187.836 85.6H185.836C185.836 94.0512 187.923 100.878 192.222 105.598C196.534 110.335 202.935 112.8 211.236 112.8V110.8ZM187.836 85.6V1.6H185.836V85.6H187.836ZM186.836 0.599998H152.636V2.6H186.836V0.599998ZM151.636 1.6V85.4H153.636V1.6H151.636ZM314.252 1.6V0.599998H313.252V1.6H314.252ZM314.252 142H313.252V143H314.252V142ZM348.452 112.4H347.452V113.4H348.452V112.4ZM348.452 30.8V29.8H347.452V30.8H348.452ZM366.852 0.599998H314.252V2.6H366.852V0.599998ZM313.252 1.6V142H315.252V1.6H313.252ZM314.252 143H366.852V141H314.252V143ZM366.852 143C389.467 143 408.13 135.778 421.146 123.22C434.164 110.659 441.452 92.8381 441.452 71.8H439.452C439.452 92.3619 432.339 109.641 419.757 121.78C407.173 133.922 389.036 141 366.852 141V143ZM441.452 71.8C441.452 50.6629 434.165 32.8409 421.145 20.3046C408.129 7.77118 389.465 0.599998 366.852 0.599998V2.6C389.038 2.6 407.174 9.62881 419.758 21.7453C432.339 33.8591 439.452 51.1371 439.452 71.8H441.452ZM349.452 112.4V30.8H347.452V112.4H349.452ZM348.452 31.8H364.652V29.8H348.452V31.8ZM364.652 31.8C377.356 31.8 387.326 35.5386 394.119 42.3321C400.913 49.1256 404.652 59.0959 404.652 71.8H406.652C406.652 58.7041 402.79 48.1744 395.534 40.9179C388.277 33.6614 377.747 29.8 364.652 29.8V31.8ZM404.652 71.8C404.652 84.5036 400.913 94.3705 394.125 101.063C387.334 107.757 377.363 111.4 364.652 111.4V113.4C377.74 113.4 388.27 109.643 395.529 102.487C402.79 95.3294 406.652 84.8964 406.652 71.8H404.652ZM364.652 111.4H348.452V113.4H364.652V111.4ZM575.364 142L574.417 142.321L574.647 143H575.364V142ZM611.564 142V143H612.989L612.504 141.66L611.564 142ZM560.764 1.6L561.704 1.25976L561.466 0.599998H560.764V1.6ZM521.164 1.6V0.599998H520.462L520.224 1.25976L521.164 1.6ZM470.364 142L469.424 141.66L468.939 143H470.364V142ZM506.164 142V143H506.881L507.111 142.321L506.164 142ZM514.564 117.2V116.2H513.847L513.617 116.879L514.564 117.2ZM566.964 117.2L567.911 116.879L567.681 116.2H566.964V117.2ZM558.164 90.8V91.8H559.558L559.111 90.4794L558.164 90.8ZM523.564 90.8L522.616 90.4827L522.175 91.8H523.564V90.8ZM540.764 39.4L541.711 39.0794L540.759 36.2651L539.816 39.0827L540.764 39.4ZM575.364 143H611.564V141H575.364V143ZM612.504 141.66L561.704 1.25976L559.824 1.94023L610.624 142.34L612.504 141.66ZM560.764 0.599998H521.164V2.6H560.764V0.599998ZM520.224 1.25976L469.424 141.66L471.304 142.34L522.104 1.94023L520.224 1.25976ZM470.364 143H506.164V141H470.364V143ZM507.111 142.321L515.511 117.521L513.617 116.879L505.217 141.679L507.111 142.321ZM514.564 118.2H566.964V116.2H514.564V118.2ZM566.017 117.521L574.417 142.321L576.311 141.679L567.911 116.879L566.017 117.521ZM558.164 89.8H523.564V91.8H558.164V89.8ZM524.512 91.1173L541.712 39.7173L539.816 39.0827L522.616 90.4827L524.512 91.1173ZM539.817 39.7206L557.217 91.1207L559.111 90.4794L541.711 39.0794L539.817 39.7206ZM684.625 95.6H685.625V95.3568L685.513 95.1407L684.625 95.6ZM684.625 142H683.625V143H684.625V142ZM718.825 142V143H719.825V142H718.825ZM718.825 95.6L717.937 95.1407L717.825 95.3568V95.6H718.825ZM767.425 1.6L768.313 2.05927L769.068 0.599998H767.425V1.6ZM729.025 1.6V0.599998H728.384L728.116 1.1827L729.025 1.6ZM702.025 60.4L701.117 60.8198L702.028 62.7891L702.934 60.8173L702.025 60.4ZM674.825 1.6L675.733 1.18015L675.464 0.599998H674.825V1.6ZM636.025 1.6V0.599998H634.382L635.137 2.05927L636.025 1.6ZM683.625 95.6V142H685.625V95.6H683.625ZM684.625 143H718.825V141H684.625V143ZM719.825 142V95.6H717.825V142H719.825ZM719.713 96.0593L768.313 2.05927L766.537 1.14072L717.937 95.1407L719.713 96.0593ZM767.425 0.599998H729.025V2.6H767.425V0.599998ZM728.116 1.1827L701.116 59.9827L702.934 60.8173L729.934 2.01729L728.116 1.1827ZM702.933 59.9801L675.733 1.18015L673.917 2.01984L701.117 60.8198L702.933 59.9801ZM674.825 0.599998H636.025V2.6H674.825V0.599998ZM635.137 2.05927L683.737 96.0593L685.513 95.1407L636.913 1.14072L635.137 2.05927ZM897.005 142L896.058 142.321L896.288 143H897.005V142ZM933.205 142V143H934.63L934.145 141.66L933.205 142ZM882.405 1.6L883.345 1.25976L883.106 0.599998H882.405V1.6ZM842.805 1.6V0.599998H842.103L841.864 1.25976L842.805 1.6ZM792.005 142L791.064 141.66L790.579 143H792.005V142ZM827.805 142V143H828.522L828.752 142.321L827.805 142ZM836.205 117.2V116.2H835.488L835.258 116.879L836.205 117.2ZM888.605 117.2L889.552 116.879L889.322 116.2H888.605V117.2ZM879.805 90.8V91.8H881.199L880.752 90.4794L879.805 90.8ZM845.205 90.8L844.256 90.4827L843.816 91.8H845.205V90.8ZM862.405 39.4L863.352 39.0794L862.399 36.2651L861.456 39.0827L862.405 39.4ZM897.005 143H933.205V141H897.005V143ZM934.145 141.66L883.345 1.25976L881.464 1.94023L932.264 142.34L934.145 141.66ZM882.405 0.599998H842.805V2.6H882.405V0.599998ZM841.864 1.25976L791.064 141.66L792.945 142.34L843.745 1.94023L841.864 1.25976ZM792.005 143H827.805V141H792.005V143ZM828.752 142.321L837.152 117.521L835.258 116.879L826.858 141.679L828.752 142.321ZM836.205 118.2H888.605V116.2H836.205V118.2ZM887.658 117.521L896.058 142.321L897.952 141.679L889.552 116.879L887.658 117.521ZM879.805 89.8H845.205V91.8H879.805V89.8ZM846.153 91.1173L863.353 39.7173L861.456 39.0827L844.256 90.4827L846.153 91.1173ZM861.458 39.7206L878.857 91.1207L880.752 90.4794L863.352 39.0794L861.458 39.7206Z" fill="#2D303E"/>
</svg>
