<svg width="140" height="200" viewBox="0 0 140 200" fill="none" xmlns="http://www.w3.org/2000/svg">
<g opacity="0.2">
<circle cx="10" cy="10" r="10" fill="#F4D92E"/>
<circle cx="10" cy="40" r="10" fill="#F4D92E"/>
<circle cx="10" cy="70" r="10" fill="#F4D92E"/>
<circle cx="10" cy="100" r="10" fill="#F4D92E"/>
<circle cx="10" cy="130" r="10" fill="#F4D92E"/>
<circle cx="10" cy="160" r="10" fill="#F4D92E"/>
<circle cx="10" cy="190" r="10" fill="#F4D92E"/>
<circle cx="40" cy="10" r="10" fill="#F4D92E"/>
<circle cx="40" cy="40" r="10" fill="#F4D92E"/>
<circle cx="40" cy="70" r="10" fill="#F4D92E"/>
<circle cx="40" cy="100" r="10" fill="#F4D92E"/>
<circle cx="40" cy="130" r="10" fill="#F4D92E"/>
<circle cx="40" cy="160" r="10" fill="#F4D92E"/>
<circle cx="40" cy="190" r="10" fill="#F4D92E"/>
<circle cx="70" cy="10" r="10" fill="#F4D92E"/>
<circle cx="70" cy="40" r="10" fill="#F4D92E"/>
<circle cx="70" cy="70" r="10" fill="#F4D92E"/>
<circle cx="70" cy="100" r="10" fill="#F4D92E"/>
<circle cx="70" cy="130" r="10" fill="#F4D92E"/>
<circle cx="70" cy="160" r="10" fill="#F4D92E"/>
<circle cx="70" cy="190" r="10" fill="#F4D92E"/>
<circle cx="100" cy="10" r="10" fill="#F4D92E"/>
<circle cx="100" cy="40" r="10" fill="#F4D92E"/>
<circle cx="100" cy="70" r="10" fill="#F4D92E"/>
<circle cx="100" cy="100" r="10" fill="#F4D92E"/>
<circle cx="100" cy="130" r="10" fill="#F4D92E"/>
<circle cx="100" cy="160" r="10" fill="#F4D92E"/>
<circle cx="100" cy="190" r="10" fill="#F4D92E"/>
<circle cx="130" cy="10" r="10" fill="#F4D92E"/>
<circle cx="130" cy="40" r="10" fill="#F4D92E"/>
<circle cx="130" cy="70" r="10" fill="#F4D92E"/>
<circle cx="130" cy="100" r="10" fill="#F4D92E"/>
<circle cx="130" cy="130" r="10" fill="#F4D92E"/>
<circle cx="130" cy="160" r="10" fill="#F4D92E"/>
<circle cx="130" cy="190" r="10" fill="#F4D92E"/>
</g>
</svg>
