<svg width="846" height="446" viewBox="0 0 846 446" fill="none" xmlns="http://www.w3.org/2000/svg">
<path opacity="0.04" d="M140.8 95.6L141.758 95.8852L141.8 95.7456V95.6H140.8ZM140.8 63.8H141.8V62.8H140.8V63.8ZM66.4 63.8V62.8H65.4V63.8H66.4ZM66.4 89H65.4V90H66.4V89ZM109.8 89L110.75 89.3126L111.182 88H109.8V89ZM100.6 47L99.725 47.4841L100.01 48H100.6V47ZM138.4 47V48H139.689L139.369 46.7511L138.4 47ZM73 -7.62939e-06C51.7585 -7.62939e-06 33.6457 7.4893 20.8415 20.3443C8.03769 33.1989 0.6 51.3607 0.6 72.6H2.6C2.6 51.8392 9.86231 34.2011 22.2585 21.7557C34.6543 9.31068 52.2415 1.99999 73 1.99999V-7.62939e-06ZM0.6 72.6C0.6 93.8415 8.08931 111.954 20.9443 124.758C33.7989 137.562 51.9608 145 73.2 145V143C52.4392 143 34.8011 135.738 22.3557 123.341C9.91069 110.946 2.6 93.3585 2.6 72.6H0.6ZM73.2 145C110.695 145 134.448 120.456 141.758 95.8852L139.842 95.3148C132.752 119.144 109.705 143 73.2 143V145ZM141.8 95.6V63.8H139.8V95.6H141.8ZM140.8 62.8H66.4V64.8H140.8V62.8ZM65.4 63.8V89H67.4V63.8H65.4ZM66.4 90H109.8V88H66.4V90ZM108.85 88.6874C106.303 96.4252 102.162 102.439 96.6312 106.52C91.1022 110.601 84.1182 112.8 75.8 112.8V114.8C84.4818 114.8 91.8978 112.499 97.8188 108.13C103.738 103.761 108.097 97.3748 110.75 89.3126L108.85 88.6874ZM75.8 112.8C63.7092 112.8 54.1429 109.07 47.596 102.257C41.0443 95.4394 37.4 85.4135 37.4 72.6H35.4C35.4 85.7865 39.1557 96.3606 46.154 103.643C53.1571 110.93 63.2908 114.8 75.8 114.8V112.8ZM37.4 72.6C37.4 60.5979 40.9885 50.8571 47.1856 44.1274C53.3756 37.4054 62.2475 33.6 73 33.6V31.6C61.7525 31.6 52.3244 35.5945 45.7144 42.7726C39.1115 49.9429 35.4 60.2021 35.4 72.6H37.4ZM73 33.6C85.5203 33.6 94.7383 38.4698 99.725 47.4841L101.475 46.5159C96.0617 36.7302 86.0797 31.6 73 31.6V33.6ZM100.6 48H138.4V46H100.6V48ZM139.369 46.7511C131.836 17.4356 106.976 -7.62939e-06 73 -7.62939e-06V1.99999C106.224 1.99999 130.164 18.9644 137.431 47.2489L139.369 46.7511ZM296.744 2.6H297.744V1.6H296.744V2.6ZM262.544 2.6V1.6H261.544V2.6H262.544ZM213.344 2.6H214.344V1.6H213.344V2.6ZM179.144 2.6V1.6H178.144V2.6H179.144ZM178.144 86.4C178.144 106.029 184.576 120.813 195.239 130.684C205.89 140.543 220.653 145.4 237.144 145.4V143.4C221.034 143.4 206.798 138.657 196.598 129.216C186.411 119.787 180.144 105.571 180.144 86.4H178.144ZM237.144 145.4C253.533 145.4 268.688 140.543 279.758 130.697C290.846 120.835 297.744 106.051 297.744 86.4H295.744C295.744 105.549 289.041 119.765 278.429 129.203C267.8 138.657 253.154 143.4 237.144 143.4V145.4ZM297.744 86.4V2.6H295.744V86.4H297.744ZM296.744 1.6H262.544V3.6H296.744V1.6ZM261.544 2.6V86.6H263.544V2.6H261.544ZM261.544 86.6C261.544 94.7374 259.437 101.01 255.488 105.243C251.549 109.465 245.644 111.8 237.744 111.8V113.8C246.043 113.8 252.539 111.335 256.95 106.607C261.351 101.89 263.544 95.0627 263.544 86.6H261.544ZM237.744 111.8C229.844 111.8 224.045 109.465 220.208 105.252C216.357 101.022 214.344 94.7488 214.344 86.6H212.344C212.344 95.0512 214.431 101.878 218.729 106.598C223.042 111.335 229.443 113.8 237.744 113.8V111.8ZM214.344 86.6V2.6H212.344V86.6H214.344ZM213.344 1.6H179.144V3.6H213.344V1.6ZM178.144 2.6V86.4H180.144V2.6H178.144ZM432.159 2.6V1.6H431.159V2.6H432.159ZM432.159 89.6L431.324 90.1494L433.159 92.9412V89.6H432.159ZM374.959 2.6L375.795 2.05063L375.499 1.6H374.959V2.6ZM340.759 2.6V1.6H339.759V2.6H340.759ZM340.759 143H339.759V144H340.759V143ZM374.959 143V144H375.959V143H374.959ZM374.959 56.4L375.794 55.8489L373.959 53.0716V56.4H374.959ZM432.159 143L431.325 143.551L431.621 144H432.159V143ZM466.359 143V144H467.359V143H466.359ZM466.359 2.6H467.359V1.6H466.359V2.6ZM431.159 2.6V89.6H433.159V2.6H431.159ZM432.995 89.0506L375.795 2.05063L374.124 3.14937L431.324 90.1494L432.995 89.0506ZM374.959 1.6H340.759V3.6H374.959V1.6ZM339.759 2.6V143H341.759V2.6H339.759ZM340.759 144H374.959V142H340.759V144ZM375.959 143V56.4H373.959V143H375.959ZM374.125 56.9511L431.325 143.551L432.994 142.449L375.794 55.8489L374.125 56.9511ZM432.159 144H466.359V142H432.159V144ZM467.359 143V2.6H465.359V143H467.359ZM466.359 1.6H432.159V3.6H466.359V1.6ZM628.15 2.6H629.15V1.6H628.15V2.6ZM593.95 2.6V1.6H592.95V2.6H593.95ZM544.75 2.6H545.75V1.6H544.75V2.6ZM510.55 2.6V1.6H509.55V2.6H510.55ZM509.55 86.4C509.55 106.029 515.982 120.813 526.646 130.684C537.296 140.543 552.06 145.4 568.55 145.4V143.4C552.44 143.4 538.204 138.657 528.004 129.216C517.818 119.787 511.55 105.571 511.55 86.4H509.55ZM568.55 145.4C584.94 145.4 600.094 140.543 611.165 130.697C622.253 120.835 629.15 106.051 629.15 86.4H627.15C627.15 105.549 620.447 119.765 609.835 129.203C599.206 138.657 584.56 143.4 568.55 143.4V145.4ZM629.15 86.4V2.6H627.15V86.4H629.15ZM628.15 1.6H593.95V3.6H628.15V1.6ZM592.95 2.6V86.6H594.95V2.6H592.95ZM592.95 86.6C592.95 94.7374 590.843 101.01 586.894 105.243C582.955 109.465 577.05 111.8 569.15 111.8V113.8C577.45 113.8 583.945 111.335 588.356 106.607C592.757 101.89 594.95 95.0627 594.95 86.6H592.95ZM569.15 111.8C561.25 111.8 555.451 109.465 551.614 105.252C547.763 101.022 545.75 94.7488 545.75 86.6H543.75C543.75 95.0512 545.837 101.878 550.136 106.598C554.449 111.335 560.85 113.8 569.15 113.8V111.8ZM545.75 86.6V2.6H543.75V86.6H545.75ZM544.75 1.6H510.55V3.6H544.75V1.6ZM509.55 2.6V86.4H511.55V2.6H509.55ZM763.566 2.6V1.6H762.566V2.6H763.566ZM763.566 89.6L762.73 90.1494L764.566 92.9412V89.6H763.566ZM706.366 2.6L707.201 2.05063L706.905 1.6H706.366V2.6ZM672.166 2.6V1.6H671.166V2.6H672.166ZM672.166 143H671.166V144H672.166V143ZM706.366 143V144H707.366V143H706.366ZM706.366 56.4L707.2 55.8489L705.366 53.0716V56.4H706.366ZM763.566 143L762.731 143.551L763.028 144H763.566V143ZM797.766 143V144H798.766V143H797.766ZM797.766 2.6H798.766V1.6H797.766V2.6ZM762.566 2.6V89.6H764.566V2.6H762.566ZM764.401 89.0506L707.201 2.05063L705.53 3.14937L762.73 90.1494L764.401 89.0506ZM706.366 1.6H672.166V3.6H706.366V1.6ZM671.166 2.6V143H673.166V2.6H671.166ZM672.166 144H706.366V142H672.166V144ZM707.366 143V56.4H705.366V143H707.366ZM705.531 56.9511L762.731 143.551L764.4 142.449L707.2 55.8489L705.531 56.9511ZM763.566 144H797.766V142H763.566V144ZM798.766 143V2.6H796.766V143H798.766ZM797.766 1.6H763.566V3.6H797.766V1.6ZM975.956 95.6L976.915 95.8852L976.956 95.7456V95.6H975.956ZM975.956 63.8H976.956V62.8H975.956V63.8ZM901.556 63.8V62.8H900.556V63.8H901.556ZM901.556 89H900.556V90H901.556V89ZM944.956 89L945.906 89.3126L946.338 88H944.956V89ZM935.756 47L934.881 47.4841L935.167 48H935.756V47ZM973.556 47V48H974.846L974.525 46.7511L973.556 47ZM908.156 -7.62939e-06C886.915 -7.62939e-06 868.802 7.4893 855.998 20.3443C843.194 33.1989 835.756 51.3607 835.756 72.6H837.756C837.756 51.8392 845.019 34.2011 857.415 21.7557C869.811 9.31068 887.398 1.99999 908.156 1.99999V-7.62939e-06ZM835.756 72.6C835.756 93.8415 843.246 111.954 856.101 124.758C868.955 137.562 887.117 145 908.356 145V143C887.596 143 869.957 135.738 857.512 123.341C845.067 110.946 837.756 93.3585 837.756 72.6H835.756ZM908.356 145C945.852 145 969.604 120.456 976.915 95.8852L974.998 95.3148C967.908 119.144 944.861 143 908.356 143V145ZM976.956 95.6V63.8H974.956V95.6H976.956ZM975.956 62.8H901.556V64.8H975.956V62.8ZM900.556 63.8V89H902.556V63.8H900.556ZM901.556 90H944.956V88H901.556V90ZM944.006 88.6874C941.46 96.4252 937.318 102.439 931.787 106.52C926.258 110.601 919.274 112.8 910.956 112.8V114.8C919.638 114.8 927.054 112.499 932.975 108.13C938.894 103.761 943.253 97.3748 945.906 89.3126L944.006 88.6874ZM910.956 112.8C898.865 112.8 889.299 109.07 882.752 102.257C876.201 95.4394 872.556 85.4135 872.556 72.6H870.556C870.556 85.7865 874.312 96.3606 881.31 103.643C888.313 110.93 898.447 114.8 910.956 114.8V112.8ZM872.556 72.6C872.556 60.5979 876.145 50.8571 882.342 44.1274C888.532 37.4054 897.404 33.6 908.156 33.6V31.6C896.909 31.6 887.481 35.5945 880.871 42.7726C874.268 49.9429 870.556 60.2021 870.556 72.6H872.556ZM908.156 33.6C920.677 33.6 929.895 38.4698 934.881 47.4841L936.631 46.5159C931.218 36.7302 921.236 31.6 908.156 31.6V33.6ZM935.756 48H973.556V46H935.756V48ZM974.525 46.7511C966.992 17.4356 942.132 -7.62939e-06 908.156 -7.62939e-06V1.99999C941.38 1.99999 965.32 18.9644 972.588 47.2489L974.525 46.7511ZM400.714 443L399.918 443.606L400.219 444H400.714V443ZM442.514 443V444H444.575L443.3 442.381L442.514 443ZM386.114 371.4L385.33 370.78L384.84 371.399L385.329 372.019L386.114 371.4ZM440.514 302.6L441.298 303.22L442.58 301.6H440.514V302.6ZM400.314 302.6V301.6H399.818L399.518 301.995L400.314 302.6ZM353.514 364.2H352.514V367.169L354.31 364.805L353.514 364.2ZM353.514 302.6H354.514V301.6H353.514V302.6ZM319.314 302.6V301.6H318.314V302.6H319.314ZM319.314 443H318.314V444H319.314V443ZM353.514 443V444H354.514V443H353.514ZM353.514 381L354.31 380.394L352.514 378.036V381H353.514ZM400.714 444H442.514V442H400.714V444ZM443.3 442.381L386.9 370.781L385.329 372.019L441.729 443.619L443.3 442.381ZM386.898 372.02L441.298 303.22L439.73 301.98L385.33 370.78L386.898 372.02ZM440.514 301.6H400.314V303.6H440.514V301.6ZM399.518 301.995L352.718 363.595L354.31 364.805L401.11 303.205L399.518 301.995ZM354.514 364.2V302.6H352.514V364.2H354.514ZM353.514 301.6H319.314V303.6H353.514V301.6ZM318.314 302.6V443H320.314V302.6H318.314ZM319.314 444H353.514V442H319.314V444ZM354.514 443V381H352.514V443H354.514ZM352.718 381.606L399.918 443.606L401.51 442.394L354.31 380.394L352.718 381.606ZM478.767 443H477.767V444H478.767V443ZM512.967 443V444H513.967V443H512.967ZM512.967 302.6H513.967V301.6H512.967V302.6ZM478.767 302.6V301.6H477.767V302.6H478.767ZM478.767 444H512.967V442H478.767V444ZM513.967 443V302.6H511.967V443H513.967ZM512.967 301.6H478.767V303.6H512.967V301.6ZM477.767 302.6V443H479.767V302.6H477.767ZM557.752 302.6V301.6H556.752V302.6H557.752ZM557.752 443H556.752V444H557.752V443ZM591.952 413.4H590.952V414.4H591.952V413.4ZM591.952 331.8V330.8H590.952V331.8H591.952ZM610.352 301.6H557.752V303.6H610.352V301.6ZM556.752 302.6V443H558.752V302.6H556.752ZM557.752 444H610.352V442H557.752V444ZM610.352 444C632.967 444 651.63 436.778 664.646 424.22C677.664 411.659 684.952 393.838 684.952 372.8H682.952C682.952 393.362 675.839 410.641 663.257 422.78C650.673 434.922 632.536 442 610.352 442V444ZM684.952 372.8C684.952 351.663 677.665 333.841 664.645 321.305C651.629 308.771 632.965 301.6 610.352 301.6V303.6C632.538 303.6 650.674 310.629 663.258 322.745C675.839 334.859 682.952 352.137 682.952 372.8H684.952ZM592.952 413.4V331.8H590.952V413.4H592.952ZM591.952 332.8H608.152V330.8H591.952V332.8ZM608.152 332.8C620.856 332.8 630.826 336.539 637.619 343.332C644.413 350.126 648.152 360.096 648.152 372.8H650.152C650.152 359.704 646.29 349.174 639.034 341.918C631.777 334.661 621.247 330.8 608.152 330.8V332.8ZM648.152 372.8C648.152 385.504 644.413 395.371 637.625 402.063C630.833 408.757 620.863 412.4 608.152 412.4V414.4C621.24 414.4 631.77 410.643 639.029 403.487C646.29 396.329 650.152 385.896 650.152 372.8H648.152ZM608.152 412.4H591.952V414.4H608.152V412.4ZM840.064 302.6H841.064V301.6H840.064V302.6ZM805.864 302.6V301.6H804.864V302.6H805.864ZM756.664 302.6H757.664V301.6H756.664V302.6ZM722.464 302.6V301.6H721.464V302.6H722.464ZM721.464 386.4C721.464 406.029 727.896 420.813 738.56 430.684C749.21 440.543 763.974 445.4 780.464 445.4V443.4C764.354 443.4 750.118 438.657 739.918 429.216C729.732 419.787 723.464 405.571 723.464 386.4H721.464ZM780.464 445.4C796.854 445.4 812.008 440.543 823.079 430.697C834.167 420.835 841.064 406.051 841.064 386.4H839.064C839.064 405.549 832.361 419.765 821.75 429.203C811.12 438.657 796.474 443.4 780.464 443.4V445.4ZM841.064 386.4V302.6H839.064V386.4H841.064ZM840.064 301.6H805.864V303.6H840.064V301.6ZM804.864 302.6V386.6H806.864V302.6H804.864ZM804.864 386.6C804.864 394.737 802.757 401.01 798.808 405.243C794.869 409.465 788.964 411.8 781.064 411.8V413.8C789.364 413.8 795.859 411.335 800.27 406.607C804.671 401.89 806.864 395.063 806.864 386.6H804.864ZM781.064 411.8C773.164 411.8 767.366 409.465 763.528 405.252C759.677 401.022 757.664 394.749 757.664 386.6H755.664C755.664 395.051 757.751 401.878 762.05 406.598C766.363 411.335 772.764 413.8 781.064 413.8V411.8ZM757.664 386.6V302.6H755.664V386.6H757.664ZM756.664 301.6H722.464V303.6H756.664V301.6ZM721.464 302.6V386.4H723.464V302.6H721.464ZM884.08 302.6V301.6H883.08V302.6H884.08ZM884.08 443H883.08V444H884.08V443ZM963.08 443V444H964.08V443H963.08ZM963.08 416.6H964.08V415.6H963.08V416.6ZM918.28 416.6H917.28V417.6H918.28V416.6ZM918.28 302.6H919.28V301.6H918.28V302.6ZM883.08 302.6V443H885.08V302.6H883.08ZM884.08 444H963.08V442H884.08V444ZM964.08 443V416.6H962.08V443H964.08ZM963.08 415.6H918.28V417.6H963.08V415.6ZM919.28 416.6V302.6H917.28V416.6H919.28ZM918.28 301.6H884.08V303.6H918.28V301.6Z" fill="#2D303E"/>
</svg>
