<svg width="110" height="46" viewBox="0 0 110 46" fill="none" xmlns="http://www.w3.org/2000/svg">
    <path fill-rule="evenodd" clip-rule="evenodd" d="M78.6577 31.4168H72.3628C69.2442 31.4168 67.1184 29.324 67.5485 26.5281L69.2029 15.7497C69.6496 12.8298 72.5861 9.62024 75.7046 9.62024H87.5583L84.7872 27.7192C84.6217 28.7863 85.3579 29.6548 86.425 29.6548H89.3533C89.2375 30.2421 88.129 31.4168 87.1364 31.4168H84.2164C83.0997 31.4168 82.1071 31.1521 81.313 30.6723C80.4858 31.1438 79.5759 31.4168 78.6577 31.4168ZM15.7001 9.62024L12.4079 31.0859C11.9695 33.9976 9.03294 37.1575 5.91442 37.1823H0C0.0330877 36.8183 0.885095 35.2467 2.48158 35.2467H4.45857C5.32712 35.2467 6.33629 34.4526 6.46864 33.5923L9.19838 15.7415C9.64506 12.8298 12.5816 9.65333 15.7001 9.62024ZM10.679 6.12122C11.1257 3.20123 14.0623 0.0248158 17.1725 0L16.6514 3.4163C16.2047 6.32802 13.2682 9.51271 10.1496 9.53753L10.679 6.12122ZM66.9529 9.62024L63.669 31.0859C63.2223 33.9976 60.2858 37.1575 57.1672 37.1823H51.2528C51.2859 36.8183 52.1379 35.2467 53.7344 35.2467H55.7114C56.5799 35.2467 57.5891 34.4526 57.7215 33.5923L60.4595 15.7415C60.9062 12.8298 63.8344 9.65333 66.9529 9.62024ZM61.9319 6.12122C62.3786 3.20123 65.3151 0.0248158 68.4253 0L67.9042 3.4163C67.4575 6.32802 64.521 9.51271 61.4107 9.53753L61.9319 6.12122ZM53.2629 9.62024C52.1627 10.6956 51.2363 12.6974 50.955 14.3435C51.9973 11.9695 54.3548 9.64506 56.9025 9.62024L53.6186 31.0859C53.1719 33.9976 50.2354 37.1575 47.1169 37.1823H35.2632C35.3046 36.8183 36.1483 35.2467 37.753 35.2467H45.661C46.5296 35.2467 47.5387 34.4526 47.6711 33.5923L48.002 31.4168H41.707C38.5968 31.4168 36.4709 29.324 36.901 26.5281L38.5554 15.7497C38.9938 12.8298 41.9304 9.62024 45.0489 9.62024H53.2629ZM50.7648 13.3509C50.9302 12.3086 50.2354 11.3904 49.1352 11.3904H46.7115C45.6527 11.3904 44.6436 12.259 44.4781 13.3261L42.2778 27.7192C42.1123 28.7863 42.8485 29.6548 43.9156 29.6548H46.3393C47.3898 29.6548 48.4073 28.8194 48.5644 27.7771L50.7648 13.3509ZM27.4049 31.4168H21.1099C17.9914 31.4168 15.8655 29.324 16.2957 26.5281L17.9501 15.7497C18.3968 12.8298 21.3333 9.62024 24.4435 9.62024H30.7385C33.857 9.62024 35.9829 11.713 35.5527 14.5172L33.8983 25.2955C33.4516 28.2155 30.5234 31.425 27.4049 31.4168ZM26.1145 11.3904H28.5381C29.5969 11.3904 30.3414 12.259 30.176 13.3261L27.9674 27.7192C27.8102 28.7863 26.801 29.6548 25.7339 29.6548H23.3103C22.2515 29.6548 21.5153 28.7863 21.6724 27.7192L23.881 13.3261C24.0382 12.259 25.0474 11.3904 26.1145 11.3904ZM79.2202 27.7192C79.063 28.7863 78.0538 29.6548 76.995 29.6548H74.5714C73.5043 29.6548 72.7681 28.7863 72.9253 27.7192L75.1339 13.3261C75.2993 12.259 76.3002 11.3904 77.3673 11.3904H81.7266L79.2202 27.7192Z" fill="white"/>
    <path fill-rule="evenodd" clip-rule="evenodd" d="M66.7377 39.3081H67.6724L66.8287 44.5856C66.7708 44.9579 66.4151 45.2639 66.0429 45.2639H65.1082L65.9519 39.9864C66.0098 39.6142 66.3655 39.3081 66.7377 39.3081ZM72.7183 43.7584C72.9086 42.6252 72.1972 41.9882 71.4527 41.7401C70.7496 41.5085 70.0713 41.2851 70.1209 40.8633C70.154 40.5489 70.4932 40.2925 70.9233 40.2842C71.3535 40.2759 71.552 40.4414 71.6843 40.491C71.8001 40.5324 72.2055 40.8467 72.6935 40.2594C72.801 40.1353 72.8672 39.8458 72.677 39.6804C72.2303 39.2916 71.5851 39.1179 70.9316 39.1344C69.9472 39.1592 68.723 39.6969 68.5989 40.7226C68.5162 41.4423 68.9546 42.0296 69.4675 42.3357C70.2946 42.8402 71.2294 43.0222 71.1797 43.7998C71.1467 44.1803 70.6338 44.263 70.2533 44.263C69.8231 44.263 69.3186 44.1555 69.1366 43.8742C69.0704 43.7584 68.8967 43.5434 68.7313 43.6261L68.0447 43.9652C68.2267 44.9082 69.2441 45.3632 70.2781 45.3301C71.1136 45.3053 72.5281 44.9 72.7183 43.7584ZM107.568 44.4698C107.75 45.0406 108.139 45.4707 108.594 45.479C109.09 45.479 109.636 45.1564 110 44.3705C109.561 44.445 108.966 44.3457 109.057 43.7667L109.768 39.3081C106.211 38.787 104.458 39.2502 103.912 42.8485C103.73 44.2217 104.433 45.4459 105.541 45.4459C106.244 45.4459 107.088 45.0571 107.568 44.4698ZM108.006 40.1932C106.542 40.0195 105.773 40.4579 105.45 42.5342C105.31 43.5351 105.732 44.4367 106.443 44.1886C106.906 44.0149 107.27 43.5764 107.535 43.1628L108.006 40.1932ZM82.0242 39.3081H82.959L82.8266 40.1353C83.3312 39.5976 83.935 39.2337 84.5058 39.2006C85.2337 39.151 85.7301 39.6059 85.8624 40.3256C86.4001 39.6804 87.0784 39.2337 87.707 39.2006C88.6997 39.1427 89.2456 39.9947 89.0554 41.1693L88.5094 44.5856C88.4515 44.9579 88.0958 45.2639 87.7236 45.2639H86.7889L87.4341 41.2272C87.492 40.8136 87.401 40.4827 87.0949 40.4827C86.7061 40.4827 86.2429 40.9873 85.7714 41.6904L85.3165 44.5856C85.2503 44.9579 84.8946 45.2639 84.5224 45.2639H83.5876L84.2328 41.2272C84.299 40.8136 84.1997 40.4827 83.8937 40.4827C83.5132 40.4827 83.0417 40.9873 82.5785 41.6904L82.1152 44.5856C82.0573 44.9579 81.7016 45.2639 81.3211 45.2639H80.3864L81.2301 39.9864C81.288 39.6142 81.6437 39.3081 82.0242 39.3081ZM95.0939 39.8954C95.6067 40.8302 94.8292 42.7741 93.1748 42.9312C92.4717 42.9974 91.8844 43.014 91.479 42.9809C91.5287 43.7253 91.9257 44.2051 92.5296 44.2051C92.8605 44.2051 93.4064 43.9404 93.9523 43.5847C94.093 43.502 94.3494 43.4937 94.4321 43.6261C94.5727 43.8411 94.6637 44.4119 94.4238 44.627C93.8117 45.1729 92.9514 45.479 92.1987 45.479C90.6601 45.479 89.6344 44.0893 89.9074 42.3936C90.048 41.4836 90.4864 40.3338 91.2392 39.7962C92.6454 38.7787 94.5893 38.9607 95.0939 39.8954ZM93.4312 40.2759C93.911 40.3918 93.6794 41.6904 93.0011 41.9138C92.5875 42.0544 92.0663 42.0544 91.5535 42.013C91.6858 41.0783 92.3476 40.0112 93.4312 40.2759ZM75.3488 38.1501H76.2835L76.0933 39.366H77.4168L77.3092 40.0112C77.2679 40.2677 77.0197 40.4827 76.7633 40.4827H75.9113L75.4894 43.138C75.4563 43.3283 75.3984 43.8825 75.721 44.1224C75.903 44.2547 76.267 44.0976 76.7137 43.8577L76.9039 44.6932C76.4407 45.0488 75.9775 45.2391 75.3488 45.2639C73.8929 45.3135 73.6613 44.445 73.8102 43.5268L74.2983 40.4827H73.5455L73.6448 39.8375C73.6861 39.5811 73.9343 39.366 74.1907 39.366H74.472L74.563 38.8284C74.6209 38.4561 74.9766 38.1501 75.3488 38.1501ZM96.7069 39.3081H97.6416L97.5672 43.4937L98.9982 39.9864C99.1554 39.6059 99.5359 39.3081 99.9164 39.3081H100.884L100.801 43.9983L102.439 39.9864C102.588 39.6059 102.977 39.3081 103.349 39.3081H104.085L101.852 44.5856C101.687 44.9661 101.314 45.2639 100.934 45.2639H99.751L99.7427 41.4423L98.4109 44.5856C98.2537 44.9661 97.8732 45.2639 97.501 45.2639H96.2768L96.0948 39.9864C96.0782 39.6059 96.3347 39.3081 96.7069 39.3081ZM80.345 38.1335C80.2871 38.5058 79.9314 38.8118 79.5592 38.8118H78.6245L78.7734 37.8771C78.8313 37.5049 79.187 37.1988 79.5592 37.1988H80.4939L80.345 38.1335ZM79.2283 39.3081H80.1631L79.3193 44.5856C79.2614 44.9579 78.9057 45.2639 78.5252 45.2639H77.5905L78.4342 39.9864C78.4921 39.6142 78.8478 39.3081 79.2283 39.3081ZM67.8627 38.1335C67.8048 38.5058 67.4491 38.8118 67.0686 38.8118H66.1339L66.2828 37.8771C66.3407 37.5049 66.6964 37.1988 67.0769 37.1988H68.0116L67.8627 38.1335Z" fill="white"/>
</svg>