<svg width="655" height="540" viewBox="0 0 655 540" fill="none" xmlns="http://www.w3.org/2000/svg">
<path fill-rule="evenodd" clip-rule="evenodd" d="M0 508.433H68.9916V279.004H48.4894V182.784C29.0719 178.12 27.0108 164.018 27.0108 150.35C27.1193 133.753 39.7027 115.745 56.6252 115.637C73.5476 115.637 79.7308 125.617 82.4427 136.573C74.09 131.583 61.9405 133.427 58.5777 144.383C54.998 155.665 58.4693 160.004 70.5102 161.414H173.781V103.379H144.709C132.885 103.379 124.749 111.189 124.749 122.688C124.749 123.013 124.749 123.447 124.749 123.99V124.098C125.291 133.21 131.8 140.37 141.671 139.827C146.77 139.502 151.434 137.658 151.76 132.234C151.868 130.498 150.133 128.22 148.288 128.329C144.383 131.908 129.739 134.295 130.932 120.193C131.474 112.491 141.129 108.369 148.072 108.26C160.655 108.26 172.262 119.108 172.37 131.366C172.587 149.156 157.292 159.896 139.936 159.896C119.108 159.787 103.921 141.997 104.138 122.579C104.355 100.125 120.735 83.419 144.709 83.419H196.127L327.168 0L458.317 83.419H509.626C533.708 83.419 550.088 100.125 550.305 122.579C550.414 141.997 535.335 159.787 514.508 159.896C497.151 159.896 481.856 149.156 481.965 131.366C482.073 119.108 493.789 108.26 506.264 108.26C513.315 108.369 522.861 112.491 523.511 120.193C524.596 134.295 509.952 131.908 506.155 128.329C504.311 128.22 502.467 130.498 502.575 132.234C502.901 137.658 507.674 139.502 512.664 139.827C522.644 140.37 529.152 133.21 529.695 124.098V123.99C529.695 123.447 529.695 123.013 529.695 122.688C529.695 111.189 521.559 103.379 509.626 103.379H480.663V161.414H583.933C595.974 160.004 599.337 155.665 595.866 144.383C592.395 133.427 580.354 131.583 572.001 136.573C574.713 125.617 580.896 115.637 597.818 115.637C614.741 115.745 627.324 133.753 627.324 150.35C627.433 164.018 625.372 178.12 605.846 182.784V279.004H585.452V508.433H654.444V540H0V508.433ZM327.168 100.884C335.195 100.884 341.595 107.393 341.595 115.311C341.595 123.23 335.195 129.739 327.168 129.739C319.249 129.739 312.74 123.23 312.74 115.311C312.74 107.393 319.249 100.884 327.168 100.884ZM327.168 76.8019C348.429 76.8019 365.677 94.1583 365.677 115.311C365.677 136.464 348.429 153.712 327.168 153.712C306.014 153.712 288.767 136.464 288.767 115.311C288.767 94.1583 306.014 76.8019 327.168 76.8019ZM199.815 115.528V170.526H454.628V115.528L327.168 34.4958L199.815 115.528ZM553.777 279.004H529.912V508.433H553.777V279.004ZM498.236 279.004H477.734V269.349H445.408V457.991L498.236 490.643V279.004ZM100.667 508.433H124.532V279.004H100.667V508.433ZM156.207 492.921L208.927 460.269V269.349H176.71V279.004H156.207V492.921ZM432.499 487.172L227.585 485.87L191.245 508.433H466.778L432.499 487.172ZM240.603 269.349V457.449H413.841V269.349H240.603ZM574.279 193.09H509.409V247.328H574.279V193.09ZM477.734 237.674V199.164H176.71V237.674H477.734ZM145.034 193.09H80.1647V247.328H145.034V193.09Z" fill="#E62129"/>
</svg>
