<svg width="858" height="445" viewBox="0 0 858 445" fill="none" xmlns="http://www.w3.org/2000/svg">
<path opacity="0.04" d="M82.8 144L82.0043 144.606L82.3045 145H82.8V144ZM35.6 82L36.3957 81.3943L34.6 79.0356V82H35.6ZM35.6 144V145H36.6V144H35.6ZM1.4 144H0.400001V145H1.4V144ZM1.4 3.6V2.6H0.400001V3.6H1.4ZM35.6 3.6H36.6V2.6H35.6V3.6ZM35.6 65.2H34.6V68.1693L36.3963 65.8049L35.6 65.2ZM82.4 3.6V2.6H81.9039L81.6037 2.99504L82.4 3.6ZM122.6 3.6L123.384 4.22023L124.666 2.6H122.6V3.6ZM68.2 72.4L67.4156 71.7798L66.9261 72.3988L67.4144 73.0188L68.2 72.4ZM124.6 144V145H126.661L125.386 143.381L124.6 144ZM83.5957 143.394L36.3957 81.3943L34.8043 82.6057L82.0043 144.606L83.5957 143.394ZM34.6 82V144H36.6V82H34.6ZM35.6 143H1.4V145H35.6V143ZM2.4 144V3.6H0.400001V144H2.4ZM1.4 4.6H35.6V2.6H1.4V4.6ZM34.6 3.6V65.2H36.6V3.6H34.6ZM36.3963 65.8049L83.1963 4.20495L81.6037 2.99504L34.8037 64.595L36.3963 65.8049ZM82.4 4.6H122.6V2.6H82.4V4.6ZM121.816 2.97976L67.4156 71.7798L68.9844 73.0202L123.384 4.22023L121.816 2.97976ZM67.4144 73.0188L123.814 144.619L125.386 143.381L68.9856 71.7812L67.4144 73.0188ZM124.6 143H82.8V145H124.6V143ZM190.853 136.2L190.364 137.072L190.368 137.075L190.853 136.2ZM164.653 110.6L163.787 111.101L163.791 111.107L163.795 111.113L164.653 110.6ZM164.653 36.4L163.795 35.887L163.79 35.8948L164.653 36.4ZM190.853 10.8L190.368 9.92533L190.364 9.92786L190.853 10.8ZM263.453 10.8L262.964 11.6722L262.968 11.6747L263.453 10.8ZM289.453 36.4L288.586 36.8973L288.59 36.9052L289.453 36.4ZM289.453 110.6L290.316 111.105L290.319 111.101L289.453 110.6ZM263.453 136.2L263.942 137.072L263.942 137.072L263.453 136.2ZM254.053 103L253.314 102.327L253.307 102.334L254.053 103ZM254.053 43.8L253.307 44.466L253.313 44.473L253.32 44.4799L254.053 43.8ZM200.053 43.6L199.32 42.92L199.313 42.9273L200.053 43.6ZM200.053 103.2L199.307 103.866L199.313 103.873L199.32 103.88L200.053 103.2ZM227.253 144.4C214.215 144.4 202.25 141.373 191.338 135.325L190.368 137.075C201.59 143.294 213.891 146.4 227.253 146.4V144.4ZM191.342 135.328C180.564 129.281 171.957 120.873 165.512 110.087L163.795 111.113C170.416 122.194 179.276 130.852 190.364 137.072L191.342 135.328ZM165.519 110.099C159.213 99.1961 156.053 86.971 156.053 73.4H154.053C154.053 87.2956 157.293 99.8705 163.787 111.101L165.519 110.099ZM156.053 73.4C156.053 59.8288 159.213 47.6725 165.516 36.9052L163.79 35.8948C157.293 46.9942 154.053 59.5045 154.053 73.4H156.053ZM165.512 36.9129C171.957 26.127 180.564 17.7186 191.342 11.6721L190.364 9.92786C179.276 16.1481 170.416 24.8063 163.795 35.887L165.512 36.9129ZM191.338 11.6747C202.25 5.62715 214.215 2.6 227.253 2.6V0.599998C213.891 0.599998 201.59 3.70618 190.368 9.92534L191.338 11.6747ZM227.253 2.6C240.291 2.6 252.188 5.62712 262.964 11.6721L263.942 9.92786C252.852 3.7062 240.615 0.599998 227.253 0.599998V2.6ZM262.968 11.6747C273.876 17.7199 282.41 26.123 288.586 36.8973L290.321 35.9027C283.963 24.8103 275.164 16.1468 263.938 9.92534L262.968 11.6747ZM288.59 36.9052C294.893 47.6725 298.053 59.8288 298.053 73.4H300.053C300.053 59.5045 296.813 46.9942 290.316 35.8948L288.59 36.9052ZM298.053 73.4C298.053 86.971 294.893 99.1961 288.587 110.099L290.319 111.101C296.813 99.8705 300.053 87.2956 300.053 73.4H298.053ZM288.59 110.095C282.279 120.877 273.741 129.282 262.964 135.328L263.942 137.072C275.032 130.851 283.827 122.19 290.316 111.105L288.59 110.095ZM262.964 135.328C252.188 141.373 240.291 144.4 227.253 144.4V146.4C240.615 146.4 252.852 143.294 263.942 137.072L262.964 135.328ZM227.253 115.2C238.7 115.2 247.919 111.372 254.799 103.666L253.307 102.334C246.854 109.562 238.206 113.2 227.253 113.2V115.2ZM254.792 103.673C261.795 95.9848 265.253 85.8595 265.253 73.4H263.253C263.253 85.4738 259.912 95.0819 253.314 102.327L254.792 103.673ZM265.253 73.4C265.253 60.8112 261.797 50.68 254.786 43.1201L253.32 44.4799C259.91 51.5866 263.253 61.1888 263.253 73.4H265.253ZM254.799 43.134C247.919 35.4282 238.7 31.6 227.253 31.6V33.6C238.206 33.6 246.854 37.2384 253.307 44.466L254.799 43.134ZM227.253 31.6C215.682 31.6 206.335 35.3545 199.32 42.9201L200.786 44.2799C207.371 37.1788 216.157 33.6 227.253 33.6V31.6ZM199.313 42.9273C192.438 50.4897 189.053 60.6862 189.053 73.4H191.053C191.053 61.0471 194.335 51.377 200.793 44.2727L199.313 42.9273ZM189.053 73.4C189.053 85.9846 192.44 96.1751 199.307 103.866L200.799 102.534C194.333 95.2915 191.053 85.6154 191.053 73.4H189.053ZM199.32 103.88C206.335 111.446 215.682 115.2 227.253 115.2V113.2C216.157 113.2 207.371 109.621 200.786 102.52L199.32 103.88ZM463.68 144V145H464.68V144H463.68ZM429.48 144L428.645 144.551L428.942 145H429.48V144ZM372.28 57.4L373.114 56.8489L371.28 54.0716V57.4H372.28ZM372.28 144V145H373.28V144H372.28ZM338.08 144H337.08V145H338.08V144ZM338.08 3.6V2.6H337.08V3.6H338.08ZM372.28 3.6L373.115 3.05063L372.819 2.6H372.28V3.6ZM429.48 90.6L428.644 91.1494L430.48 93.9412V90.6H429.48ZM429.48 3.6V2.6H428.48V3.6H429.48ZM463.68 3.6H464.68V2.6H463.68V3.6ZM463.68 143H429.48V145H463.68V143ZM430.314 143.449L373.114 56.8489L371.445 57.9511L428.645 144.551L430.314 143.449ZM371.28 57.4V144H373.28V57.4H371.28ZM372.28 143H338.08V145H372.28V143ZM339.08 144V3.6H337.08V144H339.08ZM338.08 4.6H372.28V2.6H338.08V4.6ZM371.444 4.14937L428.644 91.1494L430.315 90.0506L373.115 3.05063L371.444 4.14937ZM430.48 90.6V3.6H428.48V90.6H430.48ZM429.48 4.6H463.68V2.6H429.48V4.6ZM462.68 3.6V144H464.68V3.6H462.68ZM609.47 3.6H610.47V2.6H609.47V3.6ZM609.47 31V32H610.47V31H609.47ZM572.27 31V30H571.27V31H572.27ZM572.27 144V145H573.27V144H572.27ZM538.07 144H537.07V145H538.07V144ZM538.07 31H539.07V30H538.07V31ZM500.87 31H499.87V32H500.87V31ZM500.87 3.6V2.6H499.87V3.6H500.87ZM608.47 3.6V31H610.47V3.6H608.47ZM609.47 30H572.27V32H609.47V30ZM571.27 31V144H573.27V31H571.27ZM572.27 143H538.07V145H572.27V143ZM539.07 144V31H537.07V144H539.07ZM538.07 30H500.87V32H538.07V30ZM501.87 31V3.6H499.87V31H501.87ZM500.87 4.6H609.47V2.6H500.87V4.6ZM734.034 119.2L734.982 118.879L734.751 118.2H734.034V119.2ZM681.634 119.2V118.2H680.917L680.687 118.879L681.634 119.2ZM673.234 144V145H673.951L674.182 144.321L673.234 144ZM637.434 144L636.494 143.66L636.009 145H637.434V144ZM688.234 3.6V2.6H687.533L687.294 3.25976L688.234 3.6ZM727.834 3.6L728.775 3.25976L728.536 2.6H727.834V3.6ZM778.634 144V145H780.06L779.575 143.66L778.634 144ZM742.434 144L741.487 144.321L741.717 145H742.434V144ZM725.234 92.8V93.8H726.629L726.182 92.4794L725.234 92.8ZM707.834 41.4L708.782 41.0794L707.829 38.2651L706.886 41.0827L707.834 41.4ZM690.634 92.8L689.686 92.4827L689.245 93.8H690.634V92.8ZM734.034 118.2H681.634V120.2H734.034V118.2ZM680.687 118.879L672.287 143.679L674.182 144.321L682.582 119.521L680.687 118.879ZM673.234 143H637.434V145H673.234V143ZM638.375 144.34L689.175 3.94023L687.294 3.25976L636.494 143.66L638.375 144.34ZM688.234 4.6H727.834V2.6H688.234V4.6ZM726.894 3.94023L777.694 144.34L779.575 143.66L728.775 3.25976L726.894 3.94023ZM778.634 143H742.434V145H778.634V143ZM743.382 143.679L734.982 118.879L733.087 119.521L741.487 144.321L743.382 143.679ZM726.182 92.4794L708.782 41.0794L706.887 41.7206L724.287 93.1206L726.182 92.4794ZM706.886 41.0827L689.686 92.4827L691.583 93.1173L708.783 41.7173L706.886 41.0827ZM690.634 93.8H725.234V91.8H690.634V93.8ZM895.495 144L894.7 144.606L895 145H895.495V144ZM848.295 82L849.091 81.3943L847.295 79.0356V82H848.295ZM848.295 144V145H849.295V144H848.295ZM814.095 144H813.095V145H814.095V144ZM814.095 3.6V2.6H813.095V3.6H814.095ZM848.295 3.6H849.295V2.6H848.295V3.6ZM848.295 65.2H847.295V68.1693L849.092 65.8049L848.295 65.2ZM895.095 3.6V2.6H894.599L894.299 2.99504L895.095 3.6ZM935.295 3.6L936.08 4.22023L937.361 2.6H935.295V3.6ZM880.895 72.4L880.111 71.7798L879.621 72.3988L880.11 73.0188L880.895 72.4ZM937.295 144V145H939.356L938.081 143.381L937.295 144ZM896.291 143.394L849.091 81.3943L847.5 82.6057L894.7 144.606L896.291 143.394ZM847.295 82V144H849.295V82H847.295ZM848.295 143H814.095V145H848.295V143ZM815.095 144V3.6H813.095V144H815.095ZM814.095 4.6H848.295V2.6H814.095V4.6ZM847.295 3.6V65.2H849.295V3.6H847.295ZM849.092 65.8049L895.892 4.20495L894.299 2.99504L847.499 64.595L849.092 65.8049ZM895.095 4.6H935.295V2.6H895.095V4.6ZM934.511 2.97976L880.111 71.7798L881.68 73.0202L936.08 4.22023L934.511 2.97976ZM880.11 73.0188L936.51 144.619L938.081 143.381L881.681 71.7812L880.11 73.0188ZM937.295 143H895.495V145H937.295V143ZM457.097 444L456.301 444.606L456.601 445H457.097V444ZM409.897 382L410.693 381.394L408.897 379.036V382H409.897ZM409.897 444V445H410.897V444H409.897ZM375.697 444H374.697V445H375.697V444ZM375.697 303.6V302.6H374.697V303.6H375.697ZM409.897 303.6H410.897V302.6H409.897V303.6ZM409.897 365.2H408.897V368.169L410.693 365.805L409.897 365.2ZM456.697 303.6V302.6H456.201L455.901 302.995L456.697 303.6ZM496.897 303.6L497.681 304.22L498.962 302.6H496.897V303.6ZM442.497 372.4L441.712 371.78L441.223 372.399L441.711 373.019L442.497 372.4ZM498.897 444V445H500.958L499.682 443.381L498.897 444ZM457.893 443.394L410.693 381.394L409.101 382.606L456.301 444.606L457.893 443.394ZM408.897 382V444H410.897V382H408.897ZM409.897 443H375.697V445H409.897V443ZM376.697 444V303.6H374.697V444H376.697ZM375.697 304.6H409.897V302.6H375.697V304.6ZM408.897 303.6V365.2H410.897V303.6H408.897ZM410.693 365.805L457.493 304.205L455.901 302.995L409.101 364.595L410.693 365.805ZM456.697 304.6H496.897V302.6H456.697V304.6ZM496.112 302.98L441.712 371.78L443.281 373.02L497.681 304.22L496.112 302.98ZM441.711 373.019L498.111 444.619L499.682 443.381L443.282 371.781L441.711 373.019ZM498.897 443H457.097V445H498.897V443ZM622.55 419.2L623.497 418.879L623.267 418.2H622.55V419.2ZM570.15 419.2V418.2H569.433L569.203 418.879L570.15 419.2ZM561.75 444V445H562.467L562.697 444.321L561.75 444ZM525.95 444L525.01 443.66L524.525 445H525.95V444ZM576.75 303.6V302.6H576.048L575.81 303.26L576.75 303.6ZM616.35 303.6L617.29 303.26L617.052 302.6H616.35V303.6ZM667.15 444V445H668.575L668.09 443.66L667.15 444ZM630.95 444L630.003 444.321L630.233 445H630.95V444ZM613.75 392.8V393.8H615.144L614.697 392.479L613.75 392.8ZM596.35 341.4L597.297 341.079L596.345 338.265L595.402 341.083L596.35 341.4ZM579.15 392.8L578.202 392.483L577.761 393.8H579.15V392.8ZM622.55 418.2H570.15V420.2H622.55V418.2ZM569.203 418.879L560.803 443.679L562.697 444.321L571.097 419.521L569.203 418.879ZM561.75 443H525.95V445H561.75V443ZM526.89 444.34L577.69 303.94L575.81 303.26L525.01 443.66L526.89 444.34ZM576.75 304.6H616.35V302.6H576.75V304.6ZM615.41 303.94L666.21 444.34L668.09 443.66L617.29 303.26L615.41 303.94ZM667.15 443H630.95V445H667.15V443ZM631.897 443.679L623.497 418.879L621.603 419.521L630.003 444.321L631.897 443.679ZM614.697 392.479L597.297 341.079L595.403 341.721L612.803 393.121L614.697 392.479ZM595.402 341.083L578.202 392.483L580.098 393.117L597.298 341.717L595.402 341.083ZM579.15 393.8H613.75V391.8H579.15V393.8ZM861.611 303.6H862.611V302.6H861.611V303.6ZM861.611 444V445H862.611V444H861.611ZM827.411 444H826.411V445H827.411V444ZM827.411 359.8H828.411L826.474 359.451L827.411 359.8ZM796.011 444V445H796.705L796.948 444.349L796.011 444ZM768.411 444L767.474 444.351L767.718 445H768.411V444ZM736.811 359.6L737.747 359.249L735.811 359.6H736.811ZM736.811 444V445H737.811V444H736.811ZM702.611 444H701.611V445H702.611V444ZM702.611 303.6V302.6H701.611V303.6H702.611ZM743.011 303.6L743.938 303.224L743.685 302.6H743.011V303.6ZM782.411 400.8L781.484 401.176L782.416 403.474L783.339 401.172L782.411 400.8ZM821.411 303.6V302.6H820.735L820.483 303.228L821.411 303.6ZM860.611 303.6V444H862.611V303.6H860.611ZM861.611 443H827.411V445H861.611V443ZM828.411 444V359.8H826.411V444H828.411ZM826.474 359.451L795.074 443.651L796.948 444.349L828.348 360.149L826.474 359.451ZM796.011 443H768.411V445H796.011V443ZM769.347 443.649L737.747 359.249L735.874 359.951L767.474 444.351L769.347 443.649ZM735.811 359.6V444H737.811V359.6H735.811ZM736.811 443H702.611V445H736.811V443ZM703.611 444V303.6H701.611V444H703.611ZM702.611 304.6H743.011V302.6H702.611V304.6ZM742.084 303.976L781.484 401.176L783.338 400.424L743.938 303.224L742.084 303.976ZM783.339 401.172L822.339 303.972L820.483 303.228L781.483 400.428L783.339 401.172ZM821.411 304.6H861.611V302.6H821.411V304.6ZM940.405 303.6H941.405V302.6H940.405V303.6ZM940.405 444V445H941.405V444H940.405ZM906.205 444H905.205V445H906.205V444ZM906.205 303.6V302.6H905.205V303.6H906.205ZM939.405 303.6V444H941.405V303.6H939.405ZM940.405 443H906.205V445H940.405V443ZM907.205 444V303.6H905.205V444H907.205ZM906.205 304.6H940.405V302.6H906.205V304.6Z" fill="#2D303E"/>
</svg>
