<svg width="868" height="145" viewBox="0 0 868 145" fill="none" xmlns="http://www.w3.org/2000/svg">
<path opacity="0.04" d="M82.8 142L82.0043 142.606L82.3045 143H82.8V142ZM35.6 80L36.3957 79.3943L34.6 77.0356V80H35.6ZM35.6 142V143H36.6V142H35.6ZM1.4 142H0.400001V143H1.4V142ZM1.4 1.6V0.599998H0.400001V1.6H1.4ZM35.6 1.6H36.6V0.599998H35.6V1.6ZM35.6 63.2H34.6V66.1693L36.3963 63.8049L35.6 63.2ZM82.4 1.6V0.599998H81.9039L81.6037 0.995041L82.4 1.6ZM122.6 1.6L123.384 2.22023L124.666 0.599998H122.6V1.6ZM68.2 70.4L67.4156 69.7798L66.9261 70.3988L67.4145 71.0188L68.2 70.4ZM124.6 142V143H126.661L125.386 141.381L124.6 142ZM83.5957 141.394L36.3957 79.3943L34.8043 80.6057L82.0043 142.606L83.5957 141.394ZM34.6 80V142H36.6V80H34.6ZM35.6 141H1.4V143H35.6V141ZM2.4 142V1.6H0.400001V142H2.4ZM1.4 2.6H35.6V0.599998H1.4V2.6ZM34.6 1.6V63.2H36.6V1.6H34.6ZM36.3963 63.8049L83.1963 2.20495L81.6037 0.995041L34.8037 62.595L36.3963 63.8049ZM82.4 2.6H122.6V0.599998H82.4V2.6ZM121.816 0.979759L67.4156 69.7798L68.9844 71.0202L123.384 2.22023L121.816 0.979759ZM67.4145 71.0188L123.814 142.619L125.386 141.381L68.9856 69.7812L67.4145 71.0188ZM124.6 141H82.8V143H124.6V141ZM194.453 1.6H195.453V0.599998H194.453V1.6ZM200.653 105L199.914 105.674L200.653 105ZM237.253 105L237.981 105.685L237.253 105ZM243.653 1.6V0.599998H242.653V1.6H243.653ZM277.853 1.6H278.853V0.599998H277.853V1.6ZM269.853 117.2L270.705 117.724L269.853 117.2ZM248.253 136.8L247.817 135.9L247.811 135.903L248.253 136.8ZM188.453 137L188 137.892L188.009 137.896L188.017 137.9L188.453 137ZM167.853 117.4L166.986 117.899L166.99 117.905L167.853 117.4ZM160.253 1.6V0.599998H159.253V1.6H160.253ZM193.453 1.6V85.6H195.453V1.6H193.453ZM193.453 85.6C193.453 94.1564 195.559 100.897 199.914 105.674L201.392 104.326C197.48 100.036 195.453 93.8436 195.453 85.6H193.453ZM199.914 105.674C204.29 110.473 210.662 112.8 218.853 112.8V110.8C211.044 110.8 205.283 108.593 201.392 104.326L199.914 105.674ZM218.853 112.8C227.046 112.8 233.475 110.473 237.981 105.685L236.525 104.315C232.497 108.594 226.66 110.8 218.853 110.8V112.8ZM237.981 105.685C242.476 100.91 244.653 94.164 244.653 85.6H242.653C242.653 93.836 240.563 100.024 236.525 104.315L237.981 105.685ZM244.653 85.6V1.6H242.653V85.6H244.653ZM243.653 2.6H277.853V0.599998H243.653V2.6ZM276.853 1.6V85.4H278.853V1.6H276.853ZM276.853 85.4C276.853 97.7911 274.218 108.2 269.001 116.676L270.705 117.724C276.155 108.867 278.853 98.0756 278.853 85.4H276.853ZM269.001 116.676C263.767 125.182 256.71 131.584 247.817 135.9L248.69 137.7C257.929 133.216 265.273 126.551 270.705 117.724L269.001 116.676ZM247.811 135.903C239.03 140.228 229.184 142.4 218.253 142.4V144.4C229.456 144.4 239.61 142.172 248.695 137.697L247.811 135.903ZM218.253 142.4C207.318 142.4 197.536 140.293 188.889 136.1L188.017 137.9C196.97 142.241 207.055 144.4 218.253 144.4V142.4ZM188.906 136.108C180.416 131.798 173.69 125.402 168.716 116.895L166.99 117.905C172.15 126.731 179.157 133.402 188 137.892L188.906 136.108ZM168.72 116.901C163.759 108.285 161.253 97.7989 161.253 85.4H159.253C159.253 98.0678 161.814 108.915 166.986 117.899L168.72 116.901ZM161.253 85.4V1.6H159.253V85.4H161.253ZM160.253 2.6H194.453V0.599998H160.253V2.6ZM356.069 115.6H355.069V116.6H356.069V115.6ZM400.869 115.6H401.869V114.6H400.869V115.6ZM400.869 142V143H401.869V142H400.869ZM321.869 142H320.869V143H321.869V142ZM321.869 1.6V0.599998H320.869V1.6H321.869ZM356.069 1.6H357.069V0.599998H356.069V1.6ZM356.069 116.6H400.869V114.6H356.069V116.6ZM399.869 115.6V142H401.869V115.6H399.869ZM400.869 141H321.869V143H400.869V141ZM322.869 142V1.6H320.869V142H322.869ZM321.869 2.6H356.069V0.599998H321.869V2.6ZM355.069 1.6V115.6H357.069V1.6H355.069ZM471.381 1.6H472.381V0.599998H471.381V1.6ZM471.381 142V143H472.381V142H471.381ZM437.181 142H436.181V143H437.181V142ZM437.181 1.6V0.599998H436.181V1.6H437.181ZM470.381 1.6V142H472.381V1.6H470.381ZM471.381 141H437.181V143H471.381V141ZM438.181 142V1.6H436.181V142H438.181ZM437.181 2.6H471.381V0.599998H437.181V2.6ZM641.766 142V143H642.766V142H641.766ZM607.566 142L606.731 142.551L607.028 143H607.566V142ZM550.366 55.4L551.2 54.8489L549.366 52.0716V55.4H550.366ZM550.366 142V143H551.366V142H550.366ZM516.166 142H515.166V143H516.166V142ZM516.166 1.6V0.599998H515.166V1.6H516.166ZM550.366 1.6L551.201 1.05063L550.905 0.599998H550.366V1.6ZM607.566 88.6L606.73 89.1494L608.566 91.9412V88.6H607.566ZM607.566 1.6V0.599998H606.566V1.6H607.566ZM641.766 1.6H642.766V0.599998H641.766V1.6ZM641.766 141H607.566V143H641.766V141ZM608.4 141.449L551.2 54.8489L549.531 55.9511L606.731 142.551L608.4 141.449ZM549.366 55.4V142H551.366V55.4H549.366ZM550.366 141H516.166V143H550.366V141ZM517.166 142V1.6H515.166V142H517.166ZM516.166 2.6H550.366V0.599998H516.166V2.6ZM549.53 2.14937L606.73 89.1494L608.401 88.0506L551.201 1.05063L549.53 2.14937ZM608.566 88.6V1.6H606.566V88.6H608.566ZM607.566 2.6H641.766V0.599998H607.566V2.6ZM640.766 1.6V142H642.766V1.6H640.766ZM720.756 29V28H719.756V29H720.756ZM720.756 57.4H719.756V58.4H720.756V57.4ZM766.556 57.4H767.556V56.4H766.556V57.4ZM766.556 83.8V84.8H767.556V83.8H766.556ZM720.756 83.8V82.8H719.756V83.8H720.756ZM720.756 114.6H719.756V115.6H720.756V114.6ZM772.556 114.6H773.556V113.6H772.556V114.6ZM772.556 142V143H773.556V142H772.556ZM686.556 142H685.556V143H686.556V142ZM686.556 1.6V0.599998H685.556V1.6H686.556ZM772.556 1.6H773.556V0.599998H772.556V1.6ZM772.556 29V30H773.556V29H772.556ZM719.756 29V57.4H721.756V29H719.756ZM720.756 58.4H766.556V56.4H720.756V58.4ZM765.556 57.4V83.8H767.556V57.4H765.556ZM766.556 82.8H720.756V84.8H766.556V82.8ZM719.756 83.8V114.6H721.756V83.8H719.756ZM720.756 115.6H772.556V113.6H720.756V115.6ZM771.556 114.6V142H773.556V114.6H771.556ZM772.556 141H686.556V143H772.556V141ZM687.556 142V1.6H685.556V142H687.556ZM686.556 2.6H772.556V0.599998H686.556V2.6ZM771.556 1.6V29H773.556V1.6H771.556ZM772.556 28H720.756V30H772.556V28ZM886.359 142L885.484 142.483L885.769 143H886.359V142ZM857.159 89L858.035 88.5174L857.75 88H857.159V89ZM848.959 89V88H847.959V89H848.959ZM848.959 142V143H849.959V142H848.959ZM814.759 142H813.759V143H814.759V142ZM814.759 1.6V0.599998H813.759V1.6H814.759ZM900.359 7.39999L899.912 8.29444L899.918 8.29744L900.359 7.39999ZM917.959 23.4L917.09 23.8943L917.094 23.9017L917.959 23.4ZM915.759 70.8L914.951 70.2118L914.944 70.2216L915.759 70.8ZM892.559 86.4L892.273 85.4418L891.056 85.8055L891.695 86.9035L892.559 86.4ZM924.959 142V143H926.7L925.823 141.497L924.959 142ZM848.959 64.8H847.959V65.8H848.959V64.8ZM884.159 60.2L883.467 59.478L883.46 59.4854L883.452 59.4929L884.159 60.2ZM884.159 34.6L883.452 35.3071L883.46 35.3146L883.467 35.322L884.159 34.6ZM848.959 30V29H847.959V30H848.959ZM887.235 141.517L858.035 88.5174L856.284 89.4825L885.484 142.483L887.235 141.517ZM857.159 88H848.959V90H857.159V88ZM847.959 89V142H849.959V89H847.959ZM848.959 141H814.759V143H848.959V141ZM815.759 142V1.6H813.759V142H815.759ZM814.759 2.6H872.159V0.599998H814.759V2.6ZM872.159 2.6C883.113 2.6 892.351 4.51385 899.912 8.29442L900.807 6.50556C892.901 2.55281 883.339 0.599998 872.159 0.599998V2.6ZM899.918 8.29744C907.628 12.0867 913.334 17.2892 917.09 23.8943L918.829 22.9057C914.851 15.9108 908.825 10.4466 900.8 6.50254L899.918 8.29744ZM917.094 23.9017C920.866 30.4049 922.759 37.6963 922.759 45.8H924.759C924.759 37.3704 922.786 29.7284 918.824 22.8983L917.094 23.9017ZM922.759 45.8C922.759 54.9286 920.156 63.0547 914.951 70.2118L916.568 71.3882C922.03 63.8786 924.759 55.338 924.759 45.8H922.759ZM914.944 70.2216C909.896 77.3396 902.368 82.4264 892.273 85.4418L892.846 87.3582C903.284 84.2403 911.222 78.9271 916.575 71.3784L914.944 70.2216ZM891.695 86.9035L924.095 142.503L925.823 141.497L893.423 85.8965L891.695 86.9035ZM924.959 141H886.359V143H924.959V141ZM848.959 65.8H870.159V63.8H848.959V65.8ZM870.159 65.8C876.573 65.8 881.543 64.231 884.866 60.9071L883.452 59.4929C880.643 62.3023 876.279 63.8 870.159 63.8V65.8ZM884.851 60.922C888.297 57.6198 889.959 52.9965 889.959 47.2H887.959C887.959 52.6035 886.422 56.6468 883.467 59.478L884.851 60.922ZM889.959 47.2C889.959 41.6537 888.287 37.1709 884.851 33.878L883.467 35.322C886.431 38.1624 887.959 42.0796 887.959 47.2H889.959ZM884.866 33.8929C881.543 30.5689 876.573 29 870.159 29V31C876.279 31 880.643 32.4977 883.452 35.3071L884.866 33.8929ZM870.159 29H848.959V31H870.159V29ZM847.959 30V64.8H849.959V30H847.959Z" fill="#2D303E"/>
</svg>
