<svg width="805" height="447" viewBox="0 0 805 447" fill="none" xmlns="http://www.w3.org/2000/svg">
<path opacity="0.04" d="M82.8 144L82.0043 144.606L82.3045 145H82.8V144ZM124.6 144V145H126.661L125.386 143.381L124.6 144ZM68.2 72.4L67.4156 71.7798L66.9261 72.3988L67.4145 73.0188L68.2 72.4ZM122.6 3.6L123.384 4.22023L124.666 2.6H122.6V3.6ZM82.4 3.6V2.6H81.9039L81.6037 2.99504L82.4 3.6ZM35.6 65.2H34.6V68.1693L36.3963 65.8049L35.6 65.2ZM35.6 3.6H36.6V2.6H35.6V3.6ZM1.4 3.6V2.6H0.400001V3.6H1.4ZM1.4 144H0.400001V145H1.4V144ZM35.6 144V145H36.6V144H35.6ZM35.6 82L36.3957 81.3943L34.6 79.0356V82H35.6ZM82.8 145H124.6V143H82.8V145ZM125.386 143.381L68.9856 71.7812L67.4145 73.0188L123.814 144.619L125.386 143.381ZM68.9844 73.0202L123.384 4.22023L121.816 2.97976L67.4156 71.7798L68.9844 73.0202ZM122.6 2.6H82.4V4.6H122.6V2.6ZM81.6037 2.99504L34.8037 64.595L36.3963 65.8049L83.1963 4.20495L81.6037 2.99504ZM36.6 65.2V3.6H34.6V65.2H36.6ZM35.6 2.6H1.4V4.6H35.6V2.6ZM0.400001 3.6V144H2.4V3.6H0.400001ZM1.4 145H35.6V143H1.4V145ZM36.6 144V82H34.6V144H36.6ZM34.8043 82.6057L82.0043 144.606L83.5957 143.394L36.3957 81.3943L34.8043 82.6057ZM277.853 3.6H278.853V2.6H277.853V3.6ZM243.653 3.6V2.6H242.653V3.6H243.653ZM194.453 3.6H195.453V2.6H194.453V3.6ZM160.253 3.6V2.6H159.253V3.6H160.253ZM159.253 87.4C159.253 107.029 165.686 121.813 176.349 131.684C186.999 141.543 201.763 146.4 218.253 146.4V144.4C202.144 144.4 187.907 139.657 177.707 130.216C167.521 120.787 161.253 106.571 161.253 87.4H159.253ZM218.253 146.4C234.643 146.4 249.797 141.543 260.868 131.697C271.956 121.835 278.853 107.051 278.853 87.4H276.853C276.853 106.549 270.15 120.765 259.539 130.203C248.909 139.657 234.263 144.4 218.253 144.4V146.4ZM278.853 87.4V3.6H276.853V87.4H278.853ZM277.853 2.6H243.653V4.6H277.853V2.6ZM242.653 3.6V87.6H244.653V3.6H242.653ZM242.653 87.6C242.653 95.7374 240.546 102.01 236.597 106.243C232.658 110.465 226.754 112.8 218.853 112.8V114.8C227.153 114.8 233.648 112.335 238.059 107.607C242.46 102.89 244.653 96.0627 244.653 87.6H242.653ZM218.853 112.8C210.954 112.8 205.155 110.465 201.318 106.252C197.466 102.022 195.453 95.7488 195.453 87.6H193.453C193.453 96.0512 195.54 102.878 199.839 107.598C204.152 112.335 210.553 114.8 218.853 114.8V112.8ZM195.453 87.6V3.6H193.453V87.6H195.453ZM194.453 2.6H160.253V4.6H194.453V2.6ZM159.253 3.6V87.4H161.253V3.6H159.253ZM321.869 3.6V2.6H320.869V3.6H321.869ZM321.869 144H320.869V145H321.869V144ZM400.869 144V145H401.869V144H400.869ZM400.869 117.6H401.869V116.6H400.869V117.6ZM356.069 117.6H355.069V118.6H356.069V117.6ZM356.069 3.6H357.069V2.6H356.069V3.6ZM320.869 3.6V144H322.869V3.6H320.869ZM321.869 145H400.869V143H321.869V145ZM401.869 144V117.6H399.869V144H401.869ZM400.869 116.6H356.069V118.6H400.869V116.6ZM357.069 117.6V3.6H355.069V117.6H357.069ZM356.069 2.6H321.869V4.6H356.069V2.6ZM576.381 73.4C576.381 30.6276 544.113 0.599998 503.581 0.599998V2.6C543.049 2.6 574.381 31.7724 574.381 73.4H576.381ZM503.581 0.599998C463.258 0.599998 430.381 30.6187 430.381 73.4H432.381C432.381 31.7813 464.304 2.6 503.581 2.6V0.599998ZM430.381 73.4C430.381 116.178 463.255 146.4 503.581 146.4V144.4C464.308 144.4 432.381 115.022 432.381 73.4H430.381ZM503.581 146.4C543.915 146.4 576.381 116.171 576.381 73.4H574.381C574.381 115.029 542.847 144.4 503.581 144.4V146.4ZM467.381 73.4C467.381 61.0882 470.925 51.1489 477.17 44.2987C483.406 37.4587 492.424 33.6 503.581 33.6V31.6C491.939 31.6 482.357 35.6413 475.692 42.9513C469.037 50.2511 465.381 60.7118 465.381 73.4H467.381ZM503.581 33.6C514.534 33.6 523.504 37.4557 529.742 44.2987C535.989 51.151 539.581 61.0918 539.581 73.4H541.581C541.581 60.7082 537.873 50.249 531.22 42.9513C524.559 35.6442 515.028 31.6 503.581 31.6V33.6ZM539.581 73.4C539.581 85.5049 535.991 95.4485 529.74 102.354C523.498 109.249 514.527 113.2 503.581 113.2V115.2C515.036 115.2 524.565 111.051 531.223 103.696C537.871 96.3515 541.581 85.8951 541.581 73.4H539.581ZM503.581 113.2C492.431 113.2 483.412 109.246 477.173 102.354C470.923 95.4507 467.381 85.5084 467.381 73.4H465.381C465.381 85.8916 469.039 96.3493 475.69 103.696C482.35 111.054 491.931 115.2 503.581 115.2V113.2ZM705.808 3.6V2.6H704.808V3.6H705.808ZM705.808 90.6L704.972 91.1494L706.808 93.9412V90.6H705.808ZM648.608 3.6L649.443 3.05063L649.147 2.6H648.608V3.6ZM614.408 3.6V2.6H613.408V3.6H614.408ZM614.408 144H613.408V145H614.408V144ZM648.608 144V145H649.608V144H648.608ZM648.608 57.4L649.442 56.8489L647.608 54.0716V57.4H648.608ZM705.808 144L704.973 144.551L705.27 145H705.808V144ZM740.008 144V145H741.008V144H740.008ZM740.008 3.6H741.008V2.6H740.008V3.6ZM704.808 3.6V90.6H706.808V3.6H704.808ZM706.643 90.0506L649.443 3.05063L647.772 4.14937L704.972 91.1494L706.643 90.0506ZM648.608 2.6H614.408V4.6H648.608V2.6ZM613.408 3.6V144H615.408V3.6H613.408ZM614.408 145H648.608V143H614.408V145ZM649.608 144V57.4H647.608V144H649.608ZM647.773 57.9511L704.973 144.551L706.642 143.449L649.442 56.8489L647.773 57.9511ZM705.808 145H740.008V143H705.808V145ZM741.008 144V3.6H739.008V144H741.008ZM740.008 2.6H705.808V4.6H740.008V2.6ZM160.366 366.4H159.366V367.4H160.366V366.4ZM160.366 331.2V330.2H159.366V331.2H160.366ZM126.166 303.6V302.6H125.166V303.6H126.166ZM126.166 444H125.166V445H126.166V444ZM160.366 444V445H161.366V444H160.366ZM160.366 393.6V392.6H159.366V393.6H160.366ZM161.366 366.4V331.2H159.366V366.4H161.366ZM160.366 332.2H178.966V330.2H160.366V332.2ZM178.966 332.2C185.611 332.2 190.17 333.861 193.07 336.668C195.964 339.471 197.366 343.572 197.366 348.8H199.366C199.366 343.228 197.867 338.529 194.461 335.232C191.061 331.939 185.92 330.2 178.966 330.2V332.2ZM197.366 348.8C197.366 354.028 195.964 358.129 193.07 360.932C190.17 363.739 185.611 365.4 178.966 365.4V367.4C185.92 367.4 191.061 365.661 194.461 362.368C197.867 359.071 199.366 354.372 199.366 348.8H197.366ZM178.966 365.4H160.366V367.4H178.966V365.4ZM234.166 348.8C234.166 335.673 229.785 324.091 220.95 315.796C212.12 307.505 198.951 302.6 181.566 302.6V304.6C198.58 304.6 211.211 309.395 219.581 317.254C227.947 325.109 232.166 336.127 232.166 348.8H234.166ZM181.566 302.6H126.166V304.6H181.566V302.6ZM125.166 303.6V444H127.166V303.6H125.166ZM126.166 445H160.366V443H126.166V445ZM161.366 444V393.6H159.366V444H161.366ZM160.366 394.6H181.566V392.6H160.366V394.6ZM181.566 394.6C199.671 394.6 212.843 389.133 221.492 380.612C230.136 372.097 234.166 360.626 234.166 348.8H232.166C232.166 360.174 228.295 371.103 220.089 379.188C211.888 387.267 199.26 392.6 181.566 392.6V394.6ZM305.17 366.8H304.17V367.8H305.17V366.8ZM305.17 332V331H304.17V332H305.17ZM270.97 303.6V302.6H269.97V303.6H270.97ZM270.97 444H269.97V445H270.97V444ZM305.17 444V445H306.17V444H305.17ZM305.17 391V390H304.17V391H305.17ZM313.37 391L314.246 390.517L313.961 390H313.37V391ZM342.57 444L341.694 444.483L341.98 445H342.57V444ZM381.17 444V445H382.91L382.034 443.497L381.17 444ZM348.77 388.4L348.486 387.441L347.265 387.803L347.906 388.903L348.77 388.4ZM344.17 349.2C344.17 354.524 342.721 358.629 339.872 361.409C337.019 364.193 332.608 365.8 326.37 365.8V367.8C332.933 367.8 337.922 366.107 341.269 362.841C344.62 359.571 346.17 354.876 346.17 349.2H344.17ZM326.37 365.8H305.17V367.8H326.37V365.8ZM306.17 366.8V332H304.17V366.8H306.17ZM305.17 333H326.37V331H305.17V333ZM326.37 333C332.6 333 337.017 334.653 339.875 337.419C342.729 340.181 344.17 344.19 344.17 349.2H346.17C346.17 343.81 344.612 339.219 341.266 335.981C337.924 332.747 332.94 331 326.37 331V333ZM269.97 303.6V444H271.97V303.6H269.97ZM270.97 445H305.17V443H270.97V445ZM306.17 444V391H304.17V444H306.17ZM305.17 392H313.37V390H305.17V392ZM312.494 391.483L341.694 444.483L343.446 443.517L314.246 390.517L312.494 391.483ZM342.57 445H381.17V443H342.57V445ZM382.034 443.497L349.634 387.897L347.906 388.903L380.306 444.503L382.034 443.497ZM349.054 389.359C371.113 382.823 380.97 365.806 380.97 347.8H378.97C378.97 364.994 369.627 381.177 348.486 387.441L349.054 389.359ZM380.97 347.8C380.97 335.359 376.58 324.031 367.751 315.818C358.926 307.608 345.762 302.6 328.37 302.6V304.6C345.379 304.6 358.015 309.492 366.389 317.282C374.76 325.069 378.97 335.841 378.97 347.8H380.97ZM328.37 302.6H270.97V304.6H328.37V302.6ZM560.639 373.4C560.639 330.628 528.371 300.6 487.839 300.6V302.6C527.307 302.6 558.639 331.772 558.639 373.4H560.639ZM487.839 300.6C447.516 300.6 414.639 330.619 414.639 373.4H416.639C416.639 331.781 448.562 302.6 487.839 302.6V300.6ZM414.639 373.4C414.639 416.178 447.513 446.4 487.839 446.4V444.4C448.566 444.4 416.639 415.022 416.639 373.4H414.639ZM487.839 446.4C528.173 446.4 560.639 416.171 560.639 373.4H558.639C558.639 415.029 527.105 444.4 487.839 444.4V446.4ZM451.639 373.4C451.639 361.088 455.183 351.149 461.428 344.299C467.664 337.459 476.681 333.6 487.839 333.6V331.6C476.197 331.6 466.614 335.641 459.95 342.951C453.295 350.251 449.639 360.712 449.639 373.4H451.639ZM487.839 333.6C498.792 333.6 507.762 337.456 514 344.299C520.247 351.151 523.839 361.092 523.839 373.4H525.839C525.839 360.708 522.131 350.249 515.478 342.951C508.817 335.644 499.286 331.6 487.839 331.6V333.6ZM523.839 373.4C523.839 385.505 520.249 395.449 513.998 402.354C507.755 409.249 498.785 413.2 487.839 413.2V415.2C499.293 415.2 508.823 411.051 515.48 403.696C522.129 396.351 525.839 385.895 525.839 373.4H523.839ZM487.839 413.2C476.689 413.2 467.67 409.246 461.43 402.354C455.181 395.451 451.639 385.508 451.639 373.4H449.639C449.639 385.892 453.297 396.349 459.948 403.696C466.608 411.054 476.189 415.2 487.839 415.2V413.2ZM732.066 396.6L733.024 396.885L733.066 396.746V396.6H732.066ZM732.066 364.8H733.066V363.8H732.066V364.8ZM657.666 364.8V363.8H656.666V364.8H657.666ZM657.666 390H656.666V391H657.666V390ZM701.066 390L702.016 390.313L702.448 389H701.066V390ZM691.866 348L690.991 348.484L691.276 349H691.866V348ZM729.666 348V349H730.955L730.634 347.751L729.666 348ZM664.266 301C643.024 301 624.911 308.489 612.107 321.344C599.303 334.199 591.866 352.361 591.866 373.6H593.866C593.866 352.839 601.128 335.201 613.524 322.756C625.92 310.311 643.507 303 664.266 303V301ZM591.866 373.6C591.866 394.842 599.355 412.954 612.21 425.759C625.065 438.562 643.226 446 664.466 446V444C643.705 444 626.067 436.738 613.621 424.341C601.176 411.946 593.866 394.358 593.866 373.6H591.866ZM664.466 446C701.961 446 725.714 421.456 733.024 396.885L731.107 396.315C724.018 420.144 700.97 444 664.466 444V446ZM733.066 396.6V364.8H731.066V396.6H733.066ZM732.066 363.8H657.666V365.8H732.066V363.8ZM656.666 364.8V390H658.666V364.8H656.666ZM657.666 391H701.066V389H657.666V391ZM700.116 389.687C697.569 397.425 693.428 403.439 687.897 407.52C682.368 411.601 675.384 413.8 667.066 413.8V415.8C675.747 415.8 683.163 413.499 689.084 409.13C695.003 404.761 699.362 398.375 702.016 390.313L700.116 389.687ZM667.066 413.8C654.975 413.8 645.409 410.07 638.862 403.257C632.31 396.439 628.666 386.414 628.666 373.6H626.666C626.666 386.786 630.421 397.361 637.42 404.643C644.423 411.93 654.556 415.8 667.066 415.8V413.8ZM628.666 373.6C628.666 361.598 632.254 351.857 638.451 345.127C644.641 338.405 653.513 334.6 664.266 334.6V332.6C653.018 332.6 643.59 336.595 636.98 343.773C630.377 350.943 626.666 361.202 626.666 373.6H628.666ZM664.266 334.6C676.786 334.6 686.004 339.47 690.991 348.484L692.741 347.516C687.327 337.73 677.345 332.6 664.266 332.6V334.6ZM691.866 349H729.666V347H691.866V349ZM730.634 347.751C723.102 318.436 698.242 301 664.266 301V303C697.49 303 721.43 319.964 728.697 348.249L730.634 347.751ZM910.209 373.4C910.209 330.628 877.941 300.6 837.409 300.6V302.6C876.877 302.6 908.209 331.772 908.209 373.4H910.209ZM837.409 300.6C797.087 300.6 764.209 330.619 764.209 373.4H766.209C766.209 331.781 798.132 302.6 837.409 302.6V300.6ZM764.209 373.4C764.209 416.178 797.083 446.4 837.409 446.4V444.4C798.136 444.4 766.209 415.022 766.209 373.4H764.209ZM837.409 446.4C877.743 446.4 910.209 416.171 910.209 373.4H908.209C908.209 415.029 876.676 444.4 837.409 444.4V446.4ZM801.209 373.4C801.209 361.088 804.753 351.149 810.998 344.299C817.234 337.459 826.252 333.6 837.409 333.6V331.6C825.767 331.6 816.185 335.641 809.52 342.951C802.865 350.251 799.209 360.712 799.209 373.4H801.209ZM837.409 333.6C848.363 333.6 857.332 337.456 863.57 344.299C869.817 351.151 873.409 361.092 873.409 373.4H875.409C875.409 360.708 871.701 350.249 865.048 342.951C858.387 335.644 848.856 331.6 837.409 331.6V333.6ZM873.409 373.4C873.409 385.505 869.819 395.449 863.568 402.354C857.326 409.249 848.355 413.2 837.409 413.2V415.2C848.864 415.2 858.393 411.051 865.051 403.696C871.7 396.351 875.409 385.895 875.409 373.4H873.409ZM837.409 413.2C826.259 413.2 817.24 409.246 811.001 402.354C804.752 395.451 801.209 385.508 801.209 373.4H799.209C799.209 385.892 802.867 396.349 809.518 403.696C816.178 411.054 825.76 415.2 837.409 415.2V413.2Z" fill="#2D303E"/>
</svg>
