<svg width="25" height="16" viewBox="0 0 25 16" fill="none" xmlns="http://www.w3.org/2000/svg">
<path d="M1 5L7 5" stroke="#E62129" stroke-width="2" stroke-linecap="round" stroke-linejoin="round"/>
<path d="M1 11L7 11" stroke="#E62129" stroke-width="2" stroke-linecap="round" stroke-linejoin="round"/>
<path d="M1 8H1.5" stroke="#E62129" stroke-width="2" stroke-linecap="round" stroke-linejoin="round"/>
<path d="M4 7C3.44772 7 3 7.44772 3 8C3 8.55228 3.44772 9 4 9V7ZM24.7071 8.70711C25.0976 8.31658 25.0976 7.68342 24.7071 7.29289L18.3431 0.928932C17.9526 0.538408 17.3195 0.538408 16.9289 0.928932C16.5384 1.31946 16.5384 1.95262 16.9289 2.34315L22.5858 8L16.9289 13.6569C16.5384 14.0474 16.5384 14.6805 16.9289 15.0711C17.3195 15.4616 17.9526 15.4616 18.3431 15.0711L24.7071 8.70711ZM4 9H24V7H4V9Z" fill="#E62129"/>
</svg>
