<svg width="869" height="147" viewBox="0 0 869 147" fill="none" xmlns="http://www.w3.org/2000/svg">
<path opacity="0.04" d="M28.6 140.4L28.2208 141.325L28.6 140.4ZM9 125.6L8.19405 126.192L8.20196 126.203L9 125.6ZM1.4 102V101H0.370595L0.400421 102.029L1.4 102ZM37.8 102L38.7948 101.898L38.7027 101H37.8V102ZM43.2 114L42.5257 114.738L42.5347 114.747L42.5438 114.755L43.2 114ZM67.2 114.6L67.8115 115.391L67.8225 115.383L67.8332 115.374L67.2 114.6ZM68 96.2L67.2929 96.9071L67.303 96.9172L67.3134 96.927L68 96.2ZM59.4 90.6L58.9973 91.5153L59.0038 91.5182L59.0104 91.521L59.4 90.6ZM45 85.6L44.7049 86.5555L44.7145 86.5584L45 85.6ZM22.8 77.2L22.3612 78.0986L22.8 77.2ZM8 64.8L8.79766 64.1969L8 64.8ZM16 12.8L16.6124 13.5906L16.6193 13.5852L16 12.8ZM90.4 12.8L89.7807 13.5852L89.7876 13.5905L90.4 12.8ZM105.6 43.6V44.6H106.652L106.599 43.5496L105.6 43.6ZM68.6 43.6L67.6017 43.6587L67.6571 44.6H68.6V43.6ZM63.6 33L62.9438 33.7546L62.9534 33.7629L62.9631 33.771L63.6 33ZM41.8 32.4L42.4441 33.1649L42.4556 33.1552L42.4668 33.1452L41.8 32.4ZM44.4 52.4L44.9105 51.5401L44.4 52.4ZM64.4 60.6L64.7204 59.6526L64.7078 59.6485L64.4 60.6ZM86.4 69.4L85.9528 70.2945L85.9612 70.2986L86.4 69.4ZM101.2 81.6L100.41 82.2126L101.2 81.6ZM101.2 124L100.355 123.465L100.351 123.472L100.347 123.478L101.2 124ZM83.6 139.6L83.1528 138.706L83.6 139.6ZM56.2 144.4C46.0419 144.4 36.9738 142.751 28.9792 139.475L28.2208 141.325C36.4929 144.716 45.8248 146.4 56.2 146.4V144.4ZM28.9792 139.475C20.9992 136.204 14.6153 131.377 9.79804 124.997L8.20196 126.203C13.2514 132.89 19.9341 137.929 28.2208 141.325L28.9792 139.475ZM9.80588 125.008C5.14195 118.66 2.66119 110.996 2.39958 101.971L0.400421 102.029C0.672147 111.404 3.25805 119.474 8.19412 126.192L9.80588 125.008ZM1.4 103H37.8V101H1.4V103ZM36.8052 102.102C37.3569 107.481 39.2343 111.733 42.5257 114.738L43.8743 113.262C41.0323 110.667 39.3098 106.919 38.7948 101.898L36.8052 102.102ZM42.5438 114.755C45.8294 117.612 50.0794 119 55.2 119V117C50.4539 117 46.7039 115.722 43.8562 113.245L42.5438 114.755ZM55.2 119C60.4078 119 64.6487 117.835 67.8115 115.391L66.5886 113.809C63.8847 115.898 60.1256 117 55.2 117V119ZM67.8332 115.374C71.0216 112.765 72.6 109.202 72.6 104.8H70.6C70.6 108.664 69.245 111.635 66.5668 113.826L67.8332 115.374ZM72.6 104.8C72.6 101.074 71.2976 97.9389 68.6866 95.473L67.3134 96.927C69.5024 98.9944 70.6 101.593 70.6 104.8H72.6ZM68.7071 95.4929C66.335 93.1208 63.3546 91.1873 59.7896 89.679L59.0104 91.521C62.3788 92.9461 65.1317 94.7459 67.2929 96.9071L68.7071 95.4929ZM59.8027 89.6847C56.4126 88.193 51.5661 86.5124 45.2855 84.6416L44.7145 86.5584C50.9673 88.4209 55.7208 90.0737 58.9973 91.5153L59.8027 89.6847ZM45.2951 84.6445C36.2564 81.8532 28.9093 79.0707 23.2388 76.3014L22.3612 78.0986C28.1573 80.9293 35.6103 83.7468 44.7049 86.5555L45.2951 84.6445ZM23.2388 76.3014C17.657 73.5754 12.8434 69.5478 8.79766 64.1969L7.20234 65.4031C11.4232 70.9856 16.4763 75.2246 22.3612 78.0986L23.2388 76.3014ZM8.79766 64.1969C4.82878 58.9477 2.8 52.0446 2.8 43.4H0.800001C0.800001 52.3554 2.90455 59.7189 7.20234 65.4031L8.79766 64.1969ZM2.8 43.4C2.8 30.6102 7.41477 20.7155 16.6124 13.5905L15.3876 12.0094C5.65189 19.5512 0.800001 30.0565 0.800001 43.4H2.8ZM16.6193 13.5852C25.8678 6.29057 37.965 2.6 53 2.6V0.599998C37.635 0.599998 25.0655 4.37609 15.3807 12.0148L16.6193 13.5852ZM53 2.6C68.3063 2.6 80.5351 6.29285 89.7807 13.5852L91.0193 12.0148C81.3316 4.37381 68.627 0.599998 53 0.599998V2.6ZM89.7876 13.5905C98.9981 20.7255 103.948 30.7077 104.601 43.6504L106.599 43.5496C105.919 30.0923 100.735 19.5412 91.0124 12.0094L89.7876 13.5905ZM105.6 42.6H68.6V44.6H105.6V42.6ZM69.5983 43.5413C69.3178 38.7738 67.5489 34.9651 64.2369 32.229L62.9631 33.771C65.7844 36.1016 67.3488 39.3595 67.6017 43.6587L69.5983 43.5413ZM64.2562 32.2454C60.9756 29.3927 56.7951 28 51.8 28V30C56.4049 30 60.0911 31.274 62.9438 33.7546L64.2562 32.2454ZM51.8 28C47.4763 28 43.8875 29.1903 41.1332 31.6548L42.4668 33.1452C44.7791 31.0763 47.857 30 51.8 30V28ZM41.1559 31.6351C38.3424 34.0043 37 37.4512 37 41.8H39C39 37.8821 40.1909 35.0624 42.4441 33.1649L41.1559 31.6351ZM37 41.8C37 46.7248 39.354 50.5669 43.8895 53.2598L44.9105 51.5401C40.9127 49.1664 39 45.9419 39 41.8H37ZM43.8895 53.2598C48.2543 55.8515 55.0068 58.6121 64.0922 61.5514L64.7078 59.6485C55.6598 56.7213 49.079 54.0152 44.9105 51.5401L43.8895 53.2598ZM64.0796 61.5473C73.123 64.6061 80.4092 67.5226 85.9528 70.2944L86.8472 68.5056C81.1908 65.6774 73.8104 62.7273 64.7204 59.6527L64.0796 61.5473ZM85.9612 70.2986C91.5491 73.0275 96.3645 76.9931 100.41 82.2126L101.99 80.9874C97.7689 75.5402 92.7176 71.3725 86.8388 68.5014L85.9612 70.2986ZM100.41 82.2126C104.377 87.3313 106.4 93.9664 106.4 102.2H108.4C108.4 93.6336 106.29 86.5353 101.99 80.9874L100.41 82.2126ZM106.4 102.2C106.4 110.018 104.383 117.098 100.355 123.465L102.045 124.535C106.283 117.836 108.4 110.382 108.4 102.2H106.4ZM100.347 123.478C96.457 129.832 90.7409 134.912 83.1528 138.706L84.0472 140.494C91.9258 136.555 97.943 131.235 102.053 124.522L100.347 123.478ZM83.1528 138.706C75.5854 142.489 66.6115 144.4 56.2 144.4V146.4C66.8552 146.4 76.148 144.444 84.0472 140.494L83.1528 138.706ZM182.647 117.6H181.647V118.6H182.647V117.6ZM227.447 117.6H228.447V116.6H227.447V117.6ZM227.447 144V145H228.447V144H227.447ZM148.447 144H147.447V145H148.447V144ZM148.447 3.6V2.6H147.447V3.6H148.447ZM182.647 3.6H183.647V2.6H182.647V3.6ZM182.647 118.6H227.447V116.6H182.647V118.6ZM226.447 117.6V144H228.447V117.6H226.447ZM227.447 143H148.447V145H227.447V143ZM149.447 144V3.6H147.447V144H149.447ZM148.447 4.6H182.647V2.6H148.447V4.6ZM181.647 3.6V117.6H183.647V3.6H181.647ZM297.959 31V30H296.959V31H297.959ZM297.959 59.4H296.959V60.4H297.959V59.4ZM343.759 59.4H344.759V58.4H343.759V59.4ZM343.759 85.8V86.8H344.759V85.8H343.759ZM297.959 85.8V84.8H296.959V85.8H297.959ZM297.959 116.6H296.959V117.6H297.959V116.6ZM349.759 116.6H350.759V115.6H349.759V116.6ZM349.759 144V145H350.759V144H349.759ZM263.759 144H262.759V145H263.759V144ZM263.759 3.6V2.6H262.759V3.6H263.759ZM349.759 3.6H350.759V2.6H349.759V3.6ZM349.759 31V32H350.759V31H349.759ZM296.959 31V59.4H298.959V31H296.959ZM297.959 60.4H343.759V58.4H297.959V60.4ZM342.759 59.4V85.8H344.759V59.4H342.759ZM343.759 84.8H297.959V86.8H343.759V84.8ZM296.959 85.8V116.6H298.959V85.8H296.959ZM297.959 117.6H349.759V115.6H297.959V117.6ZM348.759 116.6V144H350.759V116.6H348.759ZM349.759 143H263.759V145H349.759V143ZM264.759 144V3.6H262.759V144H264.759ZM263.759 4.6H349.759V2.6H263.759V4.6ZM348.759 3.6V31H350.759V3.6H348.759ZM349.759 30H297.959V32H349.759V30ZM550.963 3.6H551.963V2.6H550.963V3.6ZM550.963 144V145H551.963V144H550.963ZM516.763 144H515.763V145H516.763V144ZM516.763 59.8H517.763L515.826 59.4506L516.763 59.8ZM485.363 144V145H486.057L486.299 144.349L485.363 144ZM457.763 144L456.826 144.351L457.069 145H457.763V144ZM426.163 59.6L427.099 59.2494L425.163 59.6H426.163ZM426.163 144V145H427.163V144H426.163ZM391.962 144H390.962V145H391.962V144ZM391.962 3.6V2.6H390.962V3.6H391.962ZM432.362 3.6L433.289 3.22433L433.036 2.6H432.362V3.6ZM471.763 100.8L470.836 101.176L471.767 103.474L472.691 101.172L471.763 100.8ZM510.763 3.6V2.6H510.086L509.834 3.22762L510.763 3.6ZM549.963 3.6V144H551.963V3.6H549.963ZM550.963 143H516.763V145H550.963V143ZM517.763 144V59.8H515.763V144H517.763ZM515.826 59.4506L484.426 143.651L486.299 144.349L517.699 60.1494L515.826 59.4506ZM485.363 143H457.763V145H485.363V143ZM458.699 143.649L427.099 59.2494L425.226 59.9506L456.826 144.351L458.699 143.649ZM425.163 59.6V144H427.163V59.6H425.163ZM426.163 143H391.962V145H426.163V143ZM392.962 144V3.6H390.962V144H392.962ZM391.962 4.6H432.362V2.6H391.962V4.6ZM431.436 3.97565L470.836 101.176L472.689 100.424L433.289 3.22433L431.436 3.97565ZM472.691 101.172L511.691 3.97237L509.834 3.22762L470.834 100.428L472.691 101.172ZM510.763 4.6H550.963V2.6H510.763V4.6ZM682.956 119.2L683.903 118.879L683.673 118.2H682.956V119.2ZM630.556 119.2V118.2H629.839L629.609 118.879L630.556 119.2ZM622.156 144V145H622.873L623.103 144.321L622.156 144ZM586.356 144L585.416 143.66L584.931 145H586.356V144ZM637.156 3.6V2.6H636.455L636.216 3.25976L637.156 3.6ZM676.756 3.6L677.697 3.25976L677.458 2.6H676.756V3.6ZM727.556 144V145H728.982L728.497 143.66L727.556 144ZM691.356 144L690.409 144.321L690.639 145H691.356V144ZM674.156 92.8V93.8H675.551L675.103 92.4794L674.156 92.8ZM656.756 41.4L657.703 41.0794L656.751 38.2651L655.808 41.0827L656.756 41.4ZM639.556 92.8L638.608 92.4827L638.167 93.8H639.556V92.8ZM682.956 118.2H630.556V120.2H682.956V118.2ZM629.609 118.879L621.209 143.679L623.103 144.321L631.503 119.521L629.609 118.879ZM622.156 143H586.356V145H622.156V143ZM587.297 144.34L638.097 3.94023L636.216 3.25976L585.416 143.66L587.297 144.34ZM637.156 4.6H676.756V2.6H637.156V4.6ZM675.816 3.94023L726.616 144.34L728.497 143.66L677.697 3.25976L675.816 3.94023ZM727.556 143H691.356V145H727.556V143ZM692.303 143.679L683.903 118.879L682.009 119.521L690.409 144.321L692.303 143.679ZM675.103 92.4794L657.703 41.0794L655.809 41.7206L673.209 93.1207L675.103 92.4794ZM655.808 41.0827L638.608 92.4827L640.505 93.1173L657.705 41.7173L655.808 41.0827ZM639.556 93.8H674.156V91.8H639.556V93.8ZM888.617 144V145H889.617V144H888.617ZM854.417 144L853.583 144.551L853.879 145H854.417V144ZM797.217 57.4L798.052 56.8489L796.217 54.0716V57.4H797.217ZM797.217 144V145H798.217V144H797.217ZM763.017 144H762.017V145H763.017V144ZM763.017 3.6V2.6H762.017V3.6H763.017ZM797.217 3.6L798.053 3.05063L797.756 2.6H797.217V3.6ZM854.417 90.6L853.582 91.1494L855.417 93.9412V90.6H854.417ZM854.417 3.6V2.6H853.417V3.6H854.417ZM888.617 3.6H889.617V2.6H888.617V3.6ZM888.617 143H854.417V145H888.617V143ZM855.252 143.449L798.052 56.8489L796.383 57.9511L853.583 144.551L855.252 143.449ZM796.217 57.4V144H798.217V57.4H796.217ZM797.217 143H763.017V145H797.217V143ZM764.017 144V3.6H762.017V144H764.017ZM763.017 4.6H797.217V2.6H763.017V4.6ZM796.382 4.14937L853.582 91.1494L855.253 90.0506L798.053 3.05063L796.382 4.14937ZM855.417 90.6V3.6H853.417V90.6H855.417ZM854.417 4.6H888.617V2.6H854.417V4.6ZM887.617 3.6V144H889.617V3.6H887.617Z" fill="#2D303E"/>
</svg>
