<svg width="872" height="147" viewBox="0 0 872 147" fill="none" xmlns="http://www.w3.org/2000/svg">
<path opacity="0.04" d="M52.4 29L52.3756 29.9997L52.3783 29.9998L52.4 29ZM68.6 43.6L67.6022 43.6665L67.6645 44.6H68.6V43.6ZM105.6 43.6V44.6H106.654L106.599 43.5478L105.6 43.6ZM1.8 43L2.8 43.008V43H1.8ZM37.8 102L38.7957 101.908L38.7117 101H37.8V102ZM1.4 102V101H0.36417L0.40062 102.035L1.4 102ZM108.4 102.2C108.4 90.1612 103.939 81.7713 97.2317 75.6282C90.5695 69.526 81.7327 65.6783 73.0353 62.5829C64.249 59.4558 55.7227 57.1258 49.2778 54.021C42.849 50.9239 39 47.2882 39 41.8H37C37 48.5118 41.826 52.6511 48.4097 55.8228C54.9773 58.9867 63.801 61.4192 72.3647 64.4671C81.0173 67.5466 89.5305 71.2865 95.8808 77.103C102.187 82.8787 106.4 90.7388 106.4 102.2H108.4ZM39 41.8C39 37.6536 40.4492 34.7045 42.7615 32.7963C45.0993 30.867 48.4396 29.9037 52.3756 29.9997L52.4244 28.0003C48.1604 27.8963 44.3007 28.9329 41.4885 31.2537C38.6508 33.5955 37 37.1464 37 41.8H39ZM52.3783 29.9998C56.7894 30.0957 60.4473 31.4347 63.0623 33.7489C65.6691 36.0558 67.3178 39.3998 67.6022 43.6665L69.5978 43.5335C69.2822 38.8001 67.4309 34.9442 64.3877 32.2511C61.3527 29.5653 57.2106 28.1043 52.4217 28.0002L52.3783 29.9998ZM68.6 44.6H105.6V42.6H68.6V44.6ZM106.599 43.5478C105.885 29.8806 100.261 19.1034 90.8657 11.762C81.4931 4.43808 68.4555 0.599998 53 0.599998V2.6C68.1445 2.6 80.7069 6.36191 89.6343 13.338C98.5394 20.2966 103.915 30.5194 104.601 43.6522L106.599 43.5478ZM53 0.599998C38.1454 0.599998 25.1108 4.33759 15.765 11.5326C6.39025 18.7499 0.800001 29.3945 0.800001 43H2.8C2.8 30.0055 8.10975 19.9501 16.985 13.1174C25.8892 6.26241 38.4546 2.6 53 2.6V0.599998ZM0.800033 42.992C0.697837 55.7153 5.12071 64.4478 11.8548 70.7401C18.543 76.9894 27.4523 80.7755 36.2269 83.7714C40.6093 85.2676 45.0271 86.5883 49.1024 87.9029C53.2023 89.2254 56.984 90.5504 60.2086 92.0815C66.678 95.1532 70.6 98.8972 70.6 104.8H72.6C72.6 97.7028 67.747 93.4468 61.0664 90.2748C57.716 88.684 53.8289 87.3261 49.7164 85.9995C45.5791 84.6649 41.2407 83.3699 36.8731 81.8786C28.1477 78.8996 19.582 75.2231 13.2202 69.2787C6.90429 63.3772 2.70216 55.1847 2.79997 43.008L0.800033 42.992ZM70.6 104.8C70.6 108.614 69.1244 111.619 66.5261 113.693C63.9024 115.788 60.0452 117 55.2 117V119C60.3548 119 64.6977 117.712 67.7739 115.257C70.8756 112.781 72.6 109.186 72.6 104.8H70.6ZM55.2 117C50.5775 117 46.7331 115.75 43.9339 113.298C41.1412 110.851 39.2775 107.111 38.7957 101.908L36.8043 102.092C37.3225 107.689 39.3588 111.949 42.6161 114.802C45.8669 117.65 50.2225 119 55.2 119V117ZM37.8 101H1.4V103H37.8V101ZM0.40062 102.035C0.911255 116.537 7.20814 127.67 17.2526 135.152C27.2694 142.613 40.9472 146.4 56.2 146.4V144.4C41.2528 144.4 28.0306 140.687 18.4474 133.548C8.89186 126.43 2.88875 115.863 2.39938 101.965L0.40062 102.035ZM56.2 146.4C72.7998 146.4 85.8536 141.438 94.7699 133.392C103.69 125.344 108.4 114.27 108.4 102.2H106.4C106.4 113.73 101.91 124.256 93.4301 131.908C84.9464 139.562 72.4002 144.4 56.2 144.4V146.4ZM287.647 73.4C287.647 30.6276 255.379 0.599998 214.847 0.599998V2.6C254.315 2.6 285.647 31.7724 285.647 73.4H287.647ZM214.847 0.599998C174.524 0.599998 141.647 30.6187 141.647 73.4H143.647C143.647 31.7813 175.57 2.6 214.847 2.6V0.599998ZM141.647 73.4C141.647 116.178 174.52 146.4 214.847 146.4V144.4C175.573 144.4 143.647 115.022 143.647 73.4H141.647ZM214.847 146.4C255.181 146.4 287.647 116.171 287.647 73.4H285.647C285.647 115.029 254.113 144.4 214.847 144.4V146.4ZM178.647 73.4C178.647 61.0882 182.191 51.1489 188.436 44.2987C194.672 37.4587 203.689 33.6 214.847 33.6V31.6C203.205 31.6 193.622 35.6413 186.958 42.9513C180.303 50.2511 176.647 60.7118 176.647 73.4H178.647ZM214.847 33.6C225.8 33.6 234.769 37.4557 241.008 44.2987C247.255 51.151 250.847 61.0918 250.847 73.4H252.847C252.847 60.7082 249.139 50.249 242.486 42.9513C235.824 35.6442 226.294 31.6 214.847 31.6V33.6ZM250.847 73.4C250.847 85.5049 247.257 95.4485 241.006 102.354C234.763 109.249 225.793 113.2 214.847 113.2V115.2C226.301 115.2 235.831 111.051 242.488 103.696C249.137 96.3515 252.847 85.8951 252.847 73.4H250.847ZM214.847 113.2C203.697 113.2 194.678 109.246 188.438 102.354C182.189 95.4507 178.647 85.5084 178.647 73.4H176.647C176.647 85.8916 180.305 96.3493 186.956 103.696C193.616 111.054 203.197 115.2 214.847 115.2V113.2ZM442.673 3.6H443.673V2.6H442.673V3.6ZM408.473 3.6V2.6H407.473V3.6H408.473ZM359.273 3.6H360.273V2.6H359.273V3.6ZM325.073 3.6V2.6H324.073V3.6H325.073ZM324.073 87.4C324.073 107.029 330.506 121.813 341.169 131.684C351.82 141.543 366.583 146.4 383.073 146.4V144.4C366.964 144.4 352.727 139.657 342.528 130.216C332.341 120.787 326.073 106.571 326.073 87.4H324.073ZM383.073 146.4C399.463 146.4 414.617 141.543 425.688 131.697C436.776 121.835 443.673 107.051 443.673 87.4H441.673C441.673 106.549 434.971 120.765 424.359 130.203C413.729 139.657 399.084 144.4 383.073 144.4V146.4ZM443.673 87.4V3.6H441.673V87.4H443.673ZM442.673 2.6H408.473V4.6H442.673V2.6ZM407.473 3.6V87.6H409.473V3.6H407.473ZM407.473 87.6C407.473 95.7374 405.366 102.01 401.417 106.243C397.479 110.465 391.574 112.8 383.673 112.8V114.8C391.973 114.8 398.468 112.335 402.88 107.607C407.281 102.89 409.473 96.0627 409.473 87.6H407.473ZM383.673 112.8C375.774 112.8 369.975 110.465 366.138 106.252C362.286 102.022 360.273 95.7488 360.273 87.6H358.273C358.273 96.0512 360.36 102.878 364.659 107.598C368.972 112.335 375.373 114.8 383.673 114.8V112.8ZM360.273 87.6V3.6H358.273V87.6H360.273ZM359.273 2.6H325.073V4.6H359.273V2.6ZM324.073 3.6V87.4H326.073V3.6H324.073ZM547.289 109.6L546.339 109.912L547.286 112.798L548.239 109.914L547.289 109.6ZM512.489 3.6L513.439 3.28807L513.213 2.6H512.489V3.6ZM476.089 3.6V2.6H474.673L475.147 3.93429L476.089 3.6ZM525.889 144L524.947 144.334L525.183 145H525.889V144ZM568.689 144V145H569.395L569.632 144.334L568.689 144ZM618.489 3.6L619.432 3.93429L619.905 2.6H618.489V3.6ZM582.289 3.6V2.6H581.566L581.339 3.28645L582.289 3.6ZM548.239 109.288L513.439 3.28807L511.539 3.91192L546.339 109.912L548.239 109.288ZM512.489 2.6H476.089V4.6H512.489V2.6ZM475.147 3.93429L524.947 144.334L526.832 143.666L477.032 3.2657L475.147 3.93429ZM525.889 145H568.689V143H525.889V145ZM569.632 144.334L619.432 3.93429L617.547 3.2657L567.747 143.666L569.632 144.334ZM618.489 2.6H582.289V4.6H618.489V2.6ZM581.339 3.28645L546.339 109.286L548.239 109.914L583.239 3.91354L581.339 3.28645ZM738.783 3.6H739.783V2.6H738.783V3.6ZM652.783 3.6V2.6H651.783V3.6H652.783ZM652.783 144H651.783V145H652.783V144ZM738.783 144V145H739.783V144H738.783ZM738.783 116.6H739.783V115.6H738.783V116.6ZM686.983 116.6H685.983V117.6H686.983V116.6ZM686.983 85.8V84.8H685.983V85.8H686.983ZM732.783 85.8V86.8H733.783V85.8H732.783ZM732.783 59.4H733.783V58.4H732.783V59.4ZM686.983 59.4H685.983V60.4H686.983V59.4ZM686.983 31V30H685.983V31H686.983ZM738.783 31V32H739.783V31H738.783ZM738.783 2.6H652.783V4.6H738.783V2.6ZM651.783 3.6V144H653.783V3.6H651.783ZM652.783 145H738.783V143H652.783V145ZM739.783 144V116.6H737.783V144H739.783ZM738.783 115.6H686.983V117.6H738.783V115.6ZM687.983 116.6V85.8H685.983V116.6H687.983ZM686.983 86.8H732.783V84.8H686.983V86.8ZM733.783 85.8V59.4H731.783V85.8H733.783ZM732.783 58.4H686.983V60.4H732.783V58.4ZM687.983 59.4V31H685.983V59.4H687.983ZM686.983 32H738.783V30H686.983V32ZM739.783 31V3.6H737.783V31H739.783ZM872.386 3.6V2.6H871.386V3.6H872.386ZM872.386 90.6L871.55 91.1494L873.386 93.9412V90.6H872.386ZM815.186 3.6L816.022 3.05063L815.725 2.6H815.186V3.6ZM780.986 3.6V2.6H779.986V3.6H780.986ZM780.986 144H779.986V145H780.986V144ZM815.186 144V145H816.186V144H815.186ZM815.186 57.4L816.02 56.8489L814.186 54.0716V57.4H815.186ZM872.386 144L871.552 144.551L871.848 145H872.386V144ZM906.586 144V145H907.586V144H906.586ZM906.586 3.6H907.586V2.6H906.586V3.6ZM871.386 3.6V90.6H873.386V3.6H871.386ZM873.222 90.0506L816.022 3.05063L814.35 4.14937L871.55 91.1494L873.222 90.0506ZM815.186 2.6H780.986V4.6H815.186V2.6ZM779.986 3.6V144H781.986V3.6H779.986ZM780.986 145H815.186V143H780.986V145ZM816.186 144V57.4H814.186V144H816.186ZM814.352 57.9511L871.552 144.551L873.22 143.449L816.02 56.8489L814.352 57.9511ZM872.386 145H906.586V143H872.386V145ZM907.586 144V3.6H905.586V144H907.586ZM906.586 2.6H872.386V4.6H906.586V2.6ZM951.377 144H950.377V145H951.377V144ZM985.577 144V145H986.577V144H985.577ZM985.577 3.6H986.577V2.6H985.577V3.6ZM951.377 3.6V2.6H950.377V3.6H951.377ZM951.377 145H985.577V143H951.377V145ZM986.577 144V3.6H984.577V144H986.577ZM985.577 2.6H951.377V4.6H985.577V2.6ZM950.377 3.6V144H952.377V3.6H950.377ZM1064.56 66.8H1063.56V67.8H1064.56V66.8ZM1064.56 32V31H1063.56V32H1064.56ZM1030.36 3.6V2.6H1029.36V3.6H1030.36ZM1030.36 144H1029.36V145H1030.36V144ZM1064.56 144V145H1065.56V144H1064.56ZM1064.56 91V90H1063.56V91H1064.56ZM1072.76 91L1073.64 90.5174L1073.35 90H1072.76V91ZM1101.96 144L1101.09 144.483L1101.37 145H1101.96V144ZM1140.56 144V145H1142.3L1141.42 143.497L1140.56 144ZM1108.16 88.4L1107.88 87.4412L1106.66 87.803L1107.3 88.9035L1108.16 88.4ZM1103.56 49.2C1103.56 54.5239 1102.11 58.629 1099.26 61.4093C1096.41 64.1931 1092 65.8 1085.76 65.8V67.8C1092.32 67.8 1097.31 66.1069 1100.66 62.8407C1104.01 59.571 1105.56 54.8761 1105.56 49.2H1103.56ZM1085.76 65.8H1064.56V67.8H1085.76V65.8ZM1065.56 66.8V32H1063.56V66.8H1065.56ZM1064.56 33H1085.76V31H1064.56V33ZM1085.76 33C1091.99 33 1096.41 34.6529 1099.27 37.4186C1102.12 40.1805 1103.56 44.19 1103.56 49.2H1105.56C1105.56 43.81 1104 39.2194 1100.66 35.9814C1097.31 32.7471 1092.33 31 1085.76 31V33ZM1029.36 3.6V144H1031.36V3.6H1029.36ZM1030.36 145H1064.56V143H1030.36V145ZM1065.56 144V91H1063.56V144H1065.56ZM1064.56 92H1072.76V90H1064.56V92ZM1071.89 91.4825L1101.09 144.483L1102.84 143.517L1073.64 90.5174L1071.89 91.4825ZM1101.96 145H1140.56V143H1101.96V145ZM1141.42 143.497L1109.02 87.8965L1107.3 88.9035L1139.7 144.503L1141.42 143.497ZM1108.45 89.3588C1130.5 82.8228 1140.36 65.8061 1140.36 47.8H1138.36C1138.36 64.9939 1129.02 81.1772 1107.88 87.4412L1108.45 89.3588ZM1140.36 47.8C1140.36 35.359 1135.97 24.0306 1127.14 15.8178C1118.32 7.60801 1105.15 2.6 1087.76 2.6V4.6C1104.77 4.6 1117.41 9.49198 1125.78 17.2822C1134.15 25.0694 1138.36 35.841 1138.36 47.8H1140.36ZM1087.76 2.6H1030.36V4.6H1087.76V2.6Z" fill="#2D303E"/>
</svg>
