<svg width="1008" height="120" viewBox="0 0 1008 120" fill="none" xmlns="http://www.w3.org/2000/svg">
<path opacity="0.04" d="M2.84 25.6H0.84V27.6H2.84V25.6ZM32.6 25.6H34.6V23.6H32.6V25.6ZM32.6 116H30.6V118H32.6V116ZM59.96 116V118H61.96V116H59.96ZM59.96 25.6V23.6H57.96V25.6H59.96ZM89.72 25.6V27.6H91.72V25.6H89.72ZM89.72 3.68H91.72V1.68H89.72V3.68ZM2.84 3.68V1.68H0.84V3.68H2.84ZM2.84 27.6H32.6V23.6H2.84V27.6ZM30.6 25.6V116H34.6V25.6H30.6ZM32.6 118H59.96V114H32.6V118ZM61.96 116V25.6H57.96V116H61.96ZM59.96 27.6H89.72V23.6H59.96V27.6ZM91.72 25.6V3.68H87.72V25.6H91.72ZM89.72 1.68H2.84V5.67999H89.72V1.68ZM0.84 3.68V25.6H4.84V3.68H0.84ZM123.451 116H121.451V118H123.451V116ZM150.811 116V118H152.811V116H150.811ZM150.811 3.68H152.811V1.68H150.811V3.68ZM123.451 3.68V1.68H121.451V3.68H123.451ZM123.451 118H150.811V114H123.451V118ZM152.811 116V3.68H148.811V116H152.811ZM150.811 1.68H123.451V5.67999H150.811V1.68ZM121.451 3.68V116H125.451V3.68H121.451ZM190.639 116H188.639V118H190.639V116ZM217.999 116V118H219.999V116H217.999ZM217.999 48.48L219.872 47.7787L215.999 48.48H217.999ZM243.279 116L241.406 116.701L241.892 118H243.279V116ZM265.359 116V118H266.747L267.233 116.699L265.359 116ZM290.479 48.64H292.479L288.605 47.9412L290.479 48.64ZM290.479 116H288.479V118H290.479V116ZM317.839 116V118H319.839V116H317.839ZM317.839 3.68H319.839V1.68H317.839V3.68ZM285.679 3.68V1.68H284.326L283.823 2.93524L285.679 3.68ZM254.479 81.44L252.625 82.1913L254.488 86.7873L256.335 82.1848L254.479 81.44ZM222.959 3.68L224.812 2.92868L224.306 1.68H222.959V3.68ZM190.639 3.68V1.68H188.639V3.68H190.639ZM190.639 118H217.999V114H190.639V118ZM219.999 116V48.48H215.999V116H219.999ZM216.126 49.1813L241.406 116.701L245.152 115.299L219.872 47.7787L216.126 49.1813ZM243.279 118H265.359V114H243.279V118ZM267.233 116.699L292.353 49.3388L288.605 47.9412L263.485 115.301L267.233 116.699ZM288.479 48.64V116H292.479V48.64H288.479ZM290.479 118H317.839V114H290.479V118ZM319.839 116V3.68H315.839V116H319.839ZM317.839 1.68H285.679V5.67999H317.839V1.68ZM283.823 2.93524L252.623 80.6952L256.335 82.1848L287.535 4.42475L283.823 2.93524ZM256.332 80.6887L224.812 2.92868L221.105 4.43132L252.625 82.1913L256.332 80.6887ZM222.959 1.68H190.639V5.67999H222.959V1.68ZM188.639 3.68V116H192.639V3.68H188.639ZM426.314 3.68H428.314V1.68H426.314V3.68ZM357.514 3.68V1.68H355.514V3.68H357.514ZM357.514 116H355.514V118H357.514V116ZM426.314 116V118H428.314V116H426.314ZM426.314 94.08H428.314V92.08H426.314V94.08ZM384.874 94.08H382.874V96.08H384.874V94.08ZM384.874 69.44V67.44H382.874V69.44H384.874ZM421.514 69.44V71.44H423.514V69.44H421.514ZM421.514 48.32H423.514V46.32H421.514V48.32ZM384.874 48.32H382.874V50.32H384.874V48.32ZM384.874 25.6V23.6H382.874V25.6H384.874ZM426.314 25.6V27.6H428.314V25.6H426.314ZM426.314 1.68H357.514V5.67999H426.314V1.68ZM355.514 3.68V116H359.514V3.68H355.514ZM357.514 118H426.314V114H357.514V118ZM428.314 116V94.08H424.314V116H428.314ZM426.314 92.08H384.874V96.08H426.314V92.08ZM386.874 94.08V69.44H382.874V94.08H386.874ZM384.874 71.44H421.514V67.44H384.874V71.44ZM423.514 69.44V48.32H419.514V69.44H423.514ZM421.514 46.32H384.874V50.32H421.514V46.32ZM386.874 48.32V25.6H382.874V48.32H386.874ZM384.874 27.6H426.314V23.6H384.874V27.6ZM428.314 25.6V3.68H424.314V25.6H428.314ZM464.076 3.68V1.68H462.076V3.68H464.076ZM464.076 116H462.076V118H464.076V116ZM527.276 116V118H529.276V116H527.276ZM527.276 94.88H529.276V92.88H527.276V94.88ZM491.436 94.88H489.436V96.88H491.436V94.88ZM491.436 3.68H493.436V1.68H491.436V3.68ZM462.076 3.68V116H466.076V3.68H462.076ZM464.076 118H527.276V114H464.076V118ZM529.276 116V94.88H525.276V116H529.276ZM527.276 92.88H491.436V96.88H527.276V92.88ZM493.436 94.88V3.68H489.436V94.88H493.436ZM491.436 1.68H464.076V5.67999H491.436V1.68ZM636.966 116L635.072 116.642L635.532 118H636.966V116ZM665.926 116V118H668.777L667.807 115.32L665.926 116ZM625.286 3.68L627.167 2.99952L626.69 1.68H625.286V3.68ZM593.606 3.68V1.68H592.203L591.726 2.99952L593.606 3.68ZM552.966 116L551.086 115.32L550.116 118H552.966V116ZM581.606 116V118H583.04L583.501 116.642L581.606 116ZM588.326 96.16V94.16H586.892L586.432 95.5184L588.326 96.16ZM630.246 96.16L632.141 95.5184L631.68 94.16H630.246V96.16ZM623.206 75.04V77.04H625.995L625.101 74.3987L623.206 75.04ZM595.526 75.04L593.63 74.4053L592.748 77.04H595.526V75.04ZM609.286 33.92L611.181 33.2787L609.275 27.6502L607.39 33.2853L609.286 33.92ZM636.966 118H665.926V114H636.966V118ZM667.807 115.32L627.167 2.99952L623.406 4.36047L664.046 116.68L667.807 115.32ZM625.286 1.68H593.606V5.67999H625.286V1.68ZM591.726 2.99952L551.086 115.32L554.847 116.68L595.487 4.36047L591.726 2.99952ZM552.966 118H581.606V114H552.966V118ZM583.501 116.642L590.221 96.8016L586.432 95.5184L579.712 115.358L583.501 116.642ZM588.326 98.16H630.246V94.16H588.326V98.16ZM628.352 96.8016L635.072 116.642L638.861 115.358L632.141 95.5184L628.352 96.8016ZM623.206 73.04H595.526V77.04H623.206V73.04ZM597.423 75.6747L611.183 34.5547L607.39 33.2853L593.63 74.4053L597.423 75.6747ZM607.392 34.5613L621.312 75.6813L625.101 74.3987L611.181 33.2787L607.392 34.5613ZM725.655 53.92H723.655V55.92H725.655V53.92ZM725.655 25.76V23.76H723.655V25.76H725.655ZM698.295 3.68V1.68H696.295V3.68H698.295ZM698.295 116H696.295V118H698.295V116ZM725.655 116V118H727.655V116H725.655ZM725.655 75.68V73.68H723.655V75.68H725.655ZM727.655 53.92V25.76H723.655V53.92H727.655ZM725.655 27.76H740.535V23.76H725.655V27.76ZM740.535 27.76C745.666 27.76 748.965 29.0417 750.984 30.9968C752.993 32.9419 754.055 35.8643 754.055 39.84H758.055C758.055 35.1757 756.797 31.0581 753.766 28.1232C750.745 25.1983 746.284 23.76 740.535 23.76V27.76ZM754.055 39.84C754.055 43.8157 752.993 46.7381 750.984 48.6832C748.965 50.6383 745.666 51.92 740.535 51.92V55.92C746.284 55.92 750.745 54.4817 753.766 51.5568C756.797 48.6219 758.055 44.5042 758.055 39.84H754.055ZM740.535 51.92H725.655V55.92H740.535V51.92ZM785.895 39.84C785.895 29.0656 782.293 19.4622 774.944 12.562C767.604 5.67014 756.747 1.68 742.615 1.68V5.67999C756.003 5.67999 765.786 9.44986 772.206 15.478C778.617 21.4978 781.895 29.9743 781.895 39.84H785.895ZM742.615 1.68H698.295V5.67999H742.615V1.68ZM696.295 3.68V116H700.295V3.68H696.295ZM698.295 118H725.655V114H698.295V118ZM727.655 116V75.68H723.655V116H727.655ZM725.655 77.68H742.615V73.68H725.655V77.68ZM742.615 77.68C757.347 77.68 768.211 73.2262 775.399 66.1447C782.576 59.0737 785.895 49.5716 785.895 39.84H781.895C781.895 48.6684 778.894 57.0863 772.591 63.2953C766.299 69.4939 756.523 73.68 742.615 73.68V77.68ZM855.739 24L855.69 25.9994L855.695 25.9995L855.739 24ZM868.699 35.68L866.703 35.813L866.828 37.68H868.699V35.68ZM898.299 35.68V37.68H900.406L900.296 35.5757L898.299 35.68ZM815.259 35.2L817.259 35.2161L817.259 35.208V35.2H815.259ZM844.059 82.4L846.05 82.2156L845.882 80.4H844.059V82.4ZM814.939 82.4V80.4H812.867L812.94 82.4704L814.939 82.4ZM901.739 82.56C901.739 72.5824 898.021 65.5526 892.415 60.4177C886.898 55.3644 879.634 52.2217 872.649 49.7358C865.487 47.1865 858.844 45.3841 853.762 42.9357C848.712 40.5028 846.219 37.8964 846.219 34.24H842.219C842.219 40.3436 846.666 43.9572 852.026 46.5393C857.353 49.1059 864.591 51.1134 871.308 53.5042C878.203 55.9583 884.82 58.8856 889.713 63.3673C894.517 67.7674 897.739 73.7376 897.739 82.56H901.739ZM846.219 34.24C846.219 31.2271 847.257 29.229 848.792 27.9626C850.377 26.6541 852.738 25.9274 855.69 25.9994L855.788 22.0006C852.179 21.9126 848.78 22.7859 846.246 24.8774C843.66 27.011 842.219 30.2128 842.219 34.24H846.219ZM855.695 25.9995C858.998 26.0713 861.633 27.0695 863.473 28.6977C865.297 30.3116 866.494 32.6797 866.703 35.813L870.694 35.547C870.423 31.4803 868.82 28.0884 866.124 25.7023C863.444 23.3305 859.84 22.0887 855.782 22.0005L855.695 25.9995ZM868.699 37.68H898.299V33.68H868.699V37.68ZM900.296 35.5757C899.708 24.3213 895.06 15.3668 887.25 9.26408C879.485 3.19617 868.77 0.079998 856.219 0.079998V4.08C868.148 4.08 877.913 7.04382 884.787 12.4159C891.618 17.7532 895.769 25.5987 896.301 35.7843L900.296 35.5757ZM856.219 0.079998C844.15 0.079998 833.44 3.11518 825.699 9.07523C817.899 15.0797 813.259 23.9491 813.259 35.2H817.259C817.259 25.171 821.338 17.4803 828.139 12.2448C834.997 6.96481 844.768 4.08 856.219 4.08V0.079998ZM813.259 35.1839C813.174 45.6907 816.845 53.0007 822.483 58.2688C828.03 63.4513 835.363 66.5459 842.413 68.9527C845.927 70.1528 849.509 71.2247 852.732 72.2644C856.005 73.32 858.967 74.3602 861.471 75.5492C866.52 77.9465 869.099 80.6344 869.099 84.64H873.099C873.099 78.2456 868.658 74.5336 863.187 71.9358C860.431 70.6273 857.258 69.5213 853.96 68.4575C850.613 67.3778 847.19 66.3572 843.705 65.1673C836.754 62.7941 830.108 59.9187 825.214 55.3462C820.412 50.8593 817.183 44.6293 817.259 35.2161L813.259 35.1839ZM869.099 84.64C869.099 87.3484 868.068 89.3988 866.291 90.8169C864.463 92.2758 861.669 93.2 857.979 93.2V97.2C862.288 97.2 866.054 96.1242 868.786 93.9431C871.57 91.7212 873.099 88.4916 873.099 84.64H869.099ZM857.979 93.2C854.494 93.2 851.725 92.2599 849.757 90.5356C847.801 88.8225 846.414 86.1411 846.05 82.2156L842.067 82.5844C842.504 87.2989 844.236 91.0175 847.121 93.5444C849.993 96.0602 853.784 97.2 857.979 97.2V93.2ZM844.059 80.4H814.939V84.4H844.059V80.4ZM812.94 82.4704C813.361 94.4345 818.575 103.68 826.904 109.884C835.177 116.047 846.393 119.12 858.779 119.12V115.12C847.004 115.12 836.7 112.193 829.294 106.676C821.942 101.2 817.316 93.0855 816.938 82.3296L812.94 82.4704ZM858.779 119.12C872.298 119.12 883.046 115.075 890.439 108.405C897.838 101.728 901.739 92.5397 901.739 82.56H897.739C897.739 91.4603 894.279 99.5516 887.759 105.435C881.232 111.325 871.499 115.12 858.779 115.12V119.12ZM1005.38 3.68H1007.38V1.68H1005.38V3.68ZM936.576 3.68V1.68H934.576V3.68H936.576ZM936.576 116H934.576V118H936.576V116ZM1005.38 116V118H1007.38V116H1005.38ZM1005.38 94.08H1007.38V92.08H1005.38V94.08ZM963.936 94.08H961.936V96.08H963.936V94.08ZM963.936 69.44V67.44H961.936V69.44H963.936ZM1000.58 69.44V71.44H1002.58V69.44H1000.58ZM1000.58 48.32H1002.58V46.32H1000.58V48.32ZM963.936 48.32H961.936V50.32H963.936V48.32ZM963.936 25.6V23.6H961.936V25.6H963.936ZM1005.38 25.6V27.6H1007.38V25.6H1005.38ZM1005.38 1.68H936.576V5.67999H1005.38V1.68ZM934.576 3.68V116H938.576V3.68H934.576ZM936.576 118H1005.38V114H936.576V118ZM1007.38 116V94.08H1003.38V116H1007.38ZM1005.38 92.08H963.936V96.08H1005.38V92.08ZM965.936 94.08V69.44H961.936V94.08H965.936ZM963.936 71.44H1000.58V67.44H963.936V71.44ZM1002.58 69.44V48.32H998.576V69.44H1002.58ZM1000.58 46.32H963.936V50.32H1000.58V46.32ZM965.936 48.32V25.6H961.936V48.32H965.936ZM963.936 27.6H1005.38V23.6H963.936V27.6ZM1007.38 25.6V3.68H1003.38V25.6H1007.38Z" fill="#2D303E"/>
</svg>
