<svg width="876" height="147" viewBox="0 0 876 147" fill="none" xmlns="http://www.w3.org/2000/svg">
<path opacity="0.04" d="M1.8 31H0.8V32H1.8V31ZM39 31H40V30H39V31ZM39 144H38V145H39V144ZM73.2 144V145H74.2V144H73.2ZM73.2 31V30H72.2V31H73.2ZM110.4 31V32H111.4V31H110.4ZM110.4 3.6H111.4V2.6H110.4V3.6ZM1.8 3.6V2.6H0.8V3.6H1.8ZM1.8 32H39V30H1.8V32ZM38 31V144H40V31H38ZM39 145H73.2V143H39V145ZM74.2 144V31H72.2V144H74.2ZM73.2 32H110.4V30H73.2V32ZM111.4 31V3.6H109.4V31H111.4ZM110.4 2.6H1.8V4.6H110.4V2.6ZM0.8 3.6V31H2.8V3.6H0.8ZM181.764 66.8H180.764V67.8H181.764V66.8ZM181.764 32V31H180.764V32H181.764ZM147.564 3.6V2.6H146.564V3.6H147.564ZM147.564 144H146.564V145H147.564V144ZM181.764 144V145H182.764V144H181.764ZM181.764 91V90H180.764V91H181.764ZM189.964 91L190.84 90.5174L190.555 90H189.964V91ZM219.164 144L218.288 144.483L218.573 145H219.164V144ZM257.764 144V145H259.504L258.628 143.497L257.764 144ZM225.364 88.4L225.08 87.4412L223.859 87.803L224.5 88.9035L225.364 88.4ZM220.764 49.2C220.764 54.5239 219.315 58.629 216.466 61.4093C213.613 64.1931 209.202 65.8 202.964 65.8V67.8C209.526 67.8 214.515 66.1069 217.862 62.8407C221.213 59.571 222.764 54.8761 222.764 49.2H220.764ZM202.964 65.8H181.764V67.8H202.964V65.8ZM182.764 66.8V32H180.764V66.8H182.764ZM181.764 33H202.964V31H181.764V33ZM202.964 33C209.194 33 213.611 34.6529 216.469 37.4186C219.323 40.1805 220.764 44.19 220.764 49.2H222.764C222.764 43.81 221.205 39.2194 217.859 35.9814C214.517 32.7471 209.534 31 202.964 31V33ZM146.564 3.6V144H148.564V3.6H146.564ZM147.564 145H181.764V143H147.564V145ZM182.764 144V91H180.764V144H182.764ZM181.764 92H189.964V90H181.764V92ZM189.088 91.4825L218.288 144.483L220.04 143.517L190.84 90.5174L189.088 91.4825ZM219.164 145H257.764V143H219.164V145ZM258.628 143.497L226.228 87.8965L224.5 88.9035L256.9 144.503L258.628 143.497ZM225.648 89.3588C247.707 82.8228 257.564 65.8061 257.564 47.8H255.564C255.564 64.9939 246.221 81.1772 225.08 87.4412L225.648 89.3588ZM257.564 47.8C257.564 35.359 253.174 24.0306 244.345 15.8178C235.52 7.60801 222.355 2.6 204.964 2.6V4.6C221.973 4.6 234.609 9.49198 242.983 17.2822C251.354 25.0694 255.564 35.841 255.564 47.8H257.564ZM204.964 2.6H147.564V4.6H204.964V2.6ZM393.833 144L392.886 144.321L393.116 145H393.833V144ZM430.033 144V145H431.458L430.973 143.66L430.033 144ZM379.233 3.6L380.173 3.25976L379.934 2.6H379.233V3.6ZM339.633 3.6V2.6H338.931L338.692 3.25976L339.633 3.6ZM288.833 144L287.892 143.66L287.408 145H288.833V144ZM324.633 144V145H325.35L325.58 144.321L324.633 144ZM333.033 119.2V118.2H332.316L332.086 118.879L333.033 119.2ZM385.433 119.2L386.38 118.879L386.15 118.2H385.433V119.2ZM376.633 92.8V93.8H378.027L377.58 92.4794L376.633 92.8ZM342.033 92.8L341.085 92.4827L340.644 93.8H342.033V92.8ZM359.233 41.4L360.18 41.0794L359.227 38.2651L358.285 41.0827L359.233 41.4ZM393.833 145H430.033V143H393.833V145ZM430.973 143.66L380.173 3.25976L378.292 3.94023L429.092 144.34L430.973 143.66ZM379.233 2.6H339.633V4.6H379.233V2.6ZM338.692 3.25976L287.892 143.66L289.773 144.34L340.573 3.94023L338.692 3.25976ZM288.833 145H324.633V143H288.833V145ZM325.58 144.321L333.98 119.521L332.086 118.879L323.686 143.679L325.58 144.321ZM333.033 120.2H385.433V118.2H333.033V120.2ZM384.486 119.521L392.886 144.321L394.78 143.679L386.38 118.879L384.486 119.521ZM376.633 91.8H342.033V93.8H376.633V91.8ZM342.981 93.1173L360.181 41.7173L358.285 41.0827L341.085 92.4827L342.981 93.1173ZM358.286 41.7206L375.686 93.1207L377.58 92.4794L360.18 41.0794L358.286 41.7206ZM556.894 3.6V2.6H555.894V3.6H556.894ZM556.894 90.6L556.058 91.1494L557.894 93.9412V90.6H556.894ZM499.694 3.6L500.529 3.05063L500.233 2.6H499.694V3.6ZM465.494 3.6V2.6H464.494V3.6H465.494ZM465.494 144H464.494V145H465.494V144ZM499.694 144V145H500.694V144H499.694ZM499.694 57.4L500.528 56.8489L498.694 54.0716V57.4H499.694ZM556.894 144L556.059 144.551L556.356 145H556.894V144ZM591.094 144V145H592.094V144H591.094ZM591.094 3.6H592.094V2.6H591.094V3.6ZM555.894 3.6V90.6H557.894V3.6H555.894ZM557.729 90.0506L500.529 3.05063L498.858 4.14937L556.058 91.1494L557.729 90.0506ZM499.694 2.6H465.494V4.6H499.694V2.6ZM464.494 3.6V144H466.494V3.6H464.494ZM465.494 145H499.694V143H465.494V145ZM500.694 144V57.4H498.694V144H500.694ZM498.859 57.9511L556.059 144.551L557.728 143.449L500.528 56.8489L498.859 57.9511ZM556.894 145H591.094V143H556.894V145ZM592.094 144V3.6H590.094V144H592.094ZM591.094 2.6H556.894V4.6H591.094V2.6ZM682.884 29L682.86 29.9997L682.863 29.9998L682.884 29ZM699.084 43.6L698.087 43.6665L698.149 44.6H699.084V43.6ZM736.084 43.6V44.6H737.138L737.083 43.5478L736.084 43.6ZM632.284 43L633.284 43.008V43H632.284ZM668.284 102L669.28 101.908L669.196 101H668.284V102ZM631.884 102V101H630.849L630.885 102.035L631.884 102ZM738.884 102.2C738.884 90.1612 734.423 81.7713 727.716 75.6282C721.054 69.526 712.217 65.6783 703.52 62.5829C694.733 59.4558 686.207 57.1258 679.762 54.021C673.333 50.9239 669.484 47.2882 669.484 41.8H667.484C667.484 48.5118 672.31 52.6511 678.894 55.8228C685.462 58.9867 694.285 61.4192 702.849 64.4671C711.502 67.5466 720.015 71.2865 726.365 77.103C732.671 82.8787 736.884 90.7388 736.884 102.2H738.884ZM669.484 41.8C669.484 37.6536 670.934 34.7045 673.246 32.7963C675.584 30.867 678.924 29.9037 682.86 29.9997L682.909 28.0003C678.645 27.8963 674.785 28.9329 671.973 31.2537C669.135 33.5955 667.484 37.1464 667.484 41.8H669.484ZM682.863 29.9998C687.274 30.0957 690.932 31.4347 693.547 33.7489C696.154 36.0558 697.802 39.3998 698.087 43.6665L700.082 43.5335C699.767 38.8001 697.915 34.9442 694.872 32.2511C691.837 29.5653 687.695 28.1043 682.906 28.0002L682.863 29.9998ZM699.084 44.6H736.084V42.6H699.084V44.6ZM737.083 43.5478C736.369 29.8806 730.745 19.1034 721.35 11.762C711.977 4.43808 698.94 0.599998 683.484 0.599998V2.6C698.629 2.6 711.191 6.36191 720.119 13.338C729.024 20.2966 734.4 30.5194 735.086 43.6522L737.083 43.5478ZM683.484 0.599998C668.63 0.599998 655.595 4.33759 646.249 11.5326C636.875 18.7499 631.284 29.3945 631.284 43H633.284C633.284 30.0055 638.594 19.9501 647.469 13.1174C656.374 6.26241 668.939 2.6 683.484 2.6V0.599998ZM631.284 42.992C631.182 55.7153 635.605 64.4478 642.339 70.7401C649.027 76.9894 657.937 80.7755 666.711 83.7714C671.094 85.2676 675.511 86.5883 679.587 87.9029C683.687 89.2254 687.468 90.5504 690.693 92.0815C697.162 95.1532 701.084 98.8972 701.084 104.8H703.084C703.084 97.7028 698.231 93.4468 691.551 90.2748C688.2 88.684 684.313 87.3261 680.201 85.9995C676.063 84.6649 671.725 83.3699 667.357 81.8786C658.632 78.8996 650.066 75.2231 643.705 69.2787C637.389 63.3772 633.187 55.1847 633.284 43.008L631.284 42.992ZM701.084 104.8C701.084 108.614 699.609 111.619 697.01 113.693C694.387 115.788 690.53 117 685.684 117V119C690.839 119 695.182 117.712 698.258 115.257C701.36 112.781 703.084 109.186 703.084 104.8H701.084ZM685.684 117C681.062 117 677.217 115.75 674.418 113.298C671.626 110.851 669.762 107.111 669.28 101.908L667.289 102.092C667.807 107.689 669.843 111.949 673.1 114.802C676.351 117.65 680.707 119 685.684 119V117ZM668.284 101H631.884V103H668.284V101ZM630.885 102.035C631.396 116.537 637.693 127.67 647.737 135.152C657.754 142.613 671.432 146.4 686.684 146.4V144.4C671.737 144.4 658.515 140.687 648.932 133.548C639.376 126.43 633.373 115.863 632.884 101.965L630.885 102.035ZM686.684 146.4C703.284 146.4 716.338 141.438 725.254 133.392C734.174 125.344 738.884 114.27 738.884 102.2H736.884C736.884 113.73 732.395 124.256 723.914 131.908C715.431 139.562 702.885 144.4 686.684 144.4V146.4ZM813.131 66.4H812.131V67.4H813.131V66.4ZM813.131 31.2V30.2H812.131V31.2H813.131ZM778.931 3.6V2.6H777.931V3.6H778.931ZM778.931 144H777.931V145H778.931V144ZM813.131 144V145H814.131V144H813.131ZM813.131 93.6V92.6H812.131V93.6H813.131ZM814.131 66.4V31.2H812.131V66.4H814.131ZM813.131 32.2H831.731V30.2H813.131V32.2ZM831.731 32.2C838.377 32.2 842.936 33.8609 845.836 36.6684C848.73 39.471 850.131 43.5721 850.131 48.8H852.131C852.131 43.2279 850.632 38.529 847.227 35.2316C843.826 31.9391 838.686 30.2 831.731 30.2V32.2ZM850.131 48.8C850.131 54.0279 848.73 58.129 845.836 60.9316C842.936 63.7391 838.377 65.4 831.731 65.4V67.4C838.686 67.4 843.826 65.6609 847.227 62.3684C850.632 59.071 852.131 54.3721 852.131 48.8H850.131ZM831.731 65.4H813.131V67.4H831.731V65.4ZM886.931 48.8C886.931 35.6728 882.55 24.0911 873.716 15.796C864.886 7.50507 851.717 2.6 834.331 2.6V4.6C851.345 4.6 863.977 9.39493 872.347 17.254C880.712 25.1089 884.931 36.1272 884.931 48.8H886.931ZM834.331 2.6H778.931V4.6H834.331V2.6ZM777.931 3.6V144H779.931V3.6H777.931ZM778.931 145H813.131V143H778.931V145ZM814.131 144V93.6H812.131V144H814.131ZM813.131 94.6H834.331V92.6H813.131V94.6ZM834.331 94.6C852.437 94.6 865.609 89.1331 874.258 80.6124C882.902 72.0969 886.931 60.6258 886.931 48.8H884.931C884.931 60.1742 881.061 71.1031 872.854 79.1876C864.654 87.2669 852.025 92.6 834.331 92.6V94.6ZM1062.94 73.4C1062.94 30.6276 1030.67 0.599998 990.136 0.599998V2.6C1029.6 2.6 1060.94 31.7724 1060.94 73.4H1062.94ZM990.136 0.599998C949.813 0.599998 916.936 30.6187 916.936 73.4H918.936C918.936 31.7813 950.859 2.6 990.136 2.6V0.599998ZM916.936 73.4C916.936 116.178 949.809 146.4 990.136 146.4V144.4C950.862 144.4 918.936 115.022 918.936 73.4H916.936ZM990.136 146.4C1030.47 146.4 1062.94 116.171 1062.94 73.4H1060.94C1060.94 115.029 1029.4 144.4 990.136 144.4V146.4ZM953.936 73.4C953.936 61.0882 957.48 51.1489 963.725 44.2987C969.961 37.4587 978.978 33.6 990.136 33.6V31.6C978.494 31.6 968.911 35.6413 962.247 42.9513C955.592 50.2511 951.936 60.7118 951.936 73.4H953.936ZM990.136 33.6C1001.09 33.6 1010.06 37.4557 1016.3 44.2987C1022.54 51.151 1026.14 61.0918 1026.14 73.4H1028.14C1028.14 60.7082 1024.43 50.249 1017.77 42.9513C1011.11 35.6442 1001.58 31.6 990.136 31.6V33.6ZM1026.14 73.4C1026.14 85.5049 1022.55 95.4485 1016.29 102.354C1010.05 109.249 1001.08 113.2 990.136 113.2V115.2C1001.59 115.2 1011.12 111.051 1017.78 103.696C1024.43 96.3515 1028.14 85.8951 1028.14 73.4H1026.14ZM990.136 113.2C978.986 113.2 969.967 109.246 963.727 102.354C957.478 95.4507 953.936 85.5084 953.936 73.4H951.936C951.936 85.8916 955.594 96.3493 962.245 103.696C968.905 111.054 978.486 115.2 990.136 115.2V113.2ZM1135.16 66.8H1134.16V67.8H1135.16V66.8ZM1135.16 32V31H1134.16V32H1135.16ZM1100.96 3.6V2.6H1099.96V3.6H1100.96ZM1100.96 144H1099.96V145H1100.96V144ZM1135.16 144V145H1136.16V144H1135.16ZM1135.16 91V90H1134.16V91H1135.16ZM1143.36 91L1144.24 90.5174L1143.95 90H1143.36V91ZM1172.56 144L1171.69 144.483L1171.97 145H1172.56V144ZM1211.16 144V145H1212.9L1212.03 143.497L1211.16 144ZM1178.76 88.4L1178.48 87.4412L1177.26 87.803L1177.9 88.9035L1178.76 88.4ZM1174.16 49.2C1174.16 54.5239 1172.71 58.629 1169.86 61.4093C1167.01 64.1931 1162.6 65.8 1156.36 65.8V67.8C1162.92 67.8 1167.91 66.1069 1171.26 62.8407C1174.61 59.571 1176.16 54.8761 1176.16 49.2H1174.16ZM1156.36 65.8H1135.16V67.8H1156.36V65.8ZM1136.16 66.8V32H1134.16V66.8H1136.16ZM1135.16 33H1156.36V31H1135.16V33ZM1156.36 33C1162.59 33 1167.01 34.6529 1169.87 37.4186C1172.72 40.1805 1174.16 44.19 1174.16 49.2H1176.16C1176.16 43.81 1174.6 39.2194 1171.26 35.9814C1167.92 32.7471 1162.93 31 1156.36 31V33ZM1099.96 3.6V144H1101.96V3.6H1099.96ZM1100.96 145H1135.16V143H1100.96V145ZM1136.16 144V91H1134.16V144H1136.16ZM1135.16 92H1143.36V90H1135.16V92ZM1142.49 91.4825L1171.69 144.483L1173.44 143.517L1144.24 90.5174L1142.49 91.4825ZM1172.56 145H1211.16V143H1172.56V145ZM1212.03 143.497L1179.63 87.8965L1177.9 88.9035L1210.3 144.503L1212.03 143.497ZM1179.05 89.3588C1201.11 82.8228 1210.96 65.8061 1210.96 47.8H1208.96C1208.96 64.9939 1199.62 81.1772 1178.48 87.4412L1179.05 89.3588ZM1210.96 47.8C1210.96 35.359 1206.57 24.0306 1197.74 15.8178C1188.92 7.60801 1175.75 2.6 1158.36 2.6V4.6C1175.37 4.6 1188.01 9.49198 1196.38 17.2822C1204.75 25.0694 1208.96 35.841 1208.96 47.8H1210.96ZM1158.36 2.6H1100.96V4.6H1158.36V2.6ZM1243.83 31H1242.83V32H1243.83V31ZM1281.03 31H1282.03V30H1281.03V31ZM1281.03 144H1280.03V145H1281.03V144ZM1315.23 144V145H1316.23V144H1315.23ZM1315.23 31V30H1314.23V31H1315.23ZM1352.43 31V32H1353.43V31H1352.43ZM1352.43 3.6H1353.43V2.6H1352.43V3.6ZM1243.83 3.6V2.6H1242.83V3.6H1243.83ZM1243.83 32H1281.03V30H1243.83V32ZM1280.03 31V144H1282.03V31H1280.03ZM1281.03 145H1315.23V143H1281.03V145ZM1316.23 144V31H1314.23V144H1316.23ZM1315.23 32H1352.43V30H1315.23V32ZM1353.43 31V3.6H1351.43V31H1353.43ZM1352.43 2.6H1243.83V4.6H1352.43V2.6ZM1242.83 3.6V31H1244.83V3.6H1242.83Z" fill="#2D303E"/>
</svg>
