<svg width="12" height="12" viewBox="0 0 12 12" fill="none" xmlns="http://www.w3.org/2000/svg">
<path d="M0.00240803 12L0.813608 9.01919C0.279091 8.10291 -0.00173438 7.06079 8.05934e-06 6C8.05934e-06 2.6862 2.68621 0 6 0C9.3138 0 12 2.6862 12 6C12 9.31379 9.3138 12 6 12C4.93967 12.0017 3.898 11.7211 2.98201 11.187L0.00240803 12ZM3.83461 3.1848C3.75712 3.18961 3.68141 3.21002 3.61201 3.2448C3.54692 3.28166 3.4875 3.32773 3.43561 3.3816C3.36361 3.4494 3.32281 3.5082 3.27901 3.5652C3.05725 3.85379 2.93797 4.20805 2.94001 4.572C2.94121 4.866 3.01801 5.1522 3.13801 5.4198C3.38341 5.961 3.78721 6.534 4.32061 7.065C4.44901 7.1928 4.57441 7.3212 4.7094 7.4406C5.37144 8.02347 6.16036 8.44382 7.0134 8.66819L7.3548 8.72039C7.4658 8.72639 7.5768 8.71799 7.6884 8.71259C7.86315 8.70357 8.03377 8.65626 8.1882 8.57399C8.26678 8.53352 8.34346 8.48948 8.418 8.44199C8.418 8.44199 8.4438 8.42519 8.493 8.38799C8.574 8.32799 8.6238 8.28539 8.691 8.21519C8.7408 8.1636 8.784 8.10299 8.817 8.03399C8.8638 7.93619 8.9106 7.74959 8.9298 7.59419C8.9442 7.47539 8.94 7.4106 8.9382 7.3704C8.9358 7.3062 8.8824 7.2396 8.8242 7.2114L8.475 7.0548C8.475 7.0548 7.953 6.8274 7.6344 6.6822C7.60081 6.66755 7.56481 6.65921 7.5282 6.6576C7.48715 6.65338 7.44567 6.658 7.40655 6.67114C7.36743 6.68429 7.33158 6.70565 7.3014 6.7338V6.7326C7.2984 6.7326 7.2582 6.7668 6.8244 7.2924C6.7995 7.32585 6.76521 7.35114 6.72589 7.36503C6.68656 7.37892 6.64399 7.38079 6.6036 7.3704C6.56451 7.35994 6.52621 7.34671 6.489 7.3308C6.4146 7.2996 6.3888 7.2876 6.3378 7.2654L6.3348 7.2642C5.99155 7.11433 5.67374 6.9119 5.3928 6.6642C5.3172 6.5982 5.247 6.5262 5.175 6.4566C4.93895 6.23054 4.73323 5.9748 4.563 5.6958L4.5276 5.6388C4.50218 5.6005 4.48162 5.55918 4.46641 5.5158C4.44361 5.4276 4.50301 5.3568 4.50301 5.3568C4.50301 5.3568 4.64881 5.1972 4.71661 5.1108C4.77306 5.03899 4.82573 4.96429 4.8744 4.887C4.9452 4.773 4.9674 4.656 4.9302 4.5654C4.76221 4.155 4.5882 3.7464 4.40941 3.3408C4.37401 3.2604 4.26901 3.2028 4.17361 3.1914C4.14121 3.1878 4.10881 3.1842 4.07641 3.1818C3.99583 3.17779 3.91509 3.1786 3.83461 3.1842V3.1848Z" fill="white"/>
</svg>
