<svg width="759" height="147" viewBox="0 0 759 147" fill="none" xmlns="http://www.w3.org/2000/svg">
<path opacity="0.04" d="M51 97.6H52V97.3568L51.8883 97.1407L51 97.6ZM51 144H50V145H51V144ZM85.2 144V145H86.2V144H85.2ZM85.2 97.6L84.3117 97.1407L84.2 97.3568V97.6H85.2ZM133.8 3.6L134.688 4.05927L135.443 2.6H133.8V3.6ZM95.4 3.6V2.6H94.7588L94.4912 3.1827L95.4 3.6ZM68.4 62.4L67.4924 62.8198L68.4034 64.7891L69.3088 62.8173L68.4 62.4ZM41.2 3.6L42.1076 3.18015L41.8392 2.6H41.2V3.6ZM2.4 3.6V2.6H0.75723L1.5117 4.05927L2.4 3.6ZM50 97.6V144H52V97.6H50ZM51 145H85.2V143H51V145ZM86.2 144V97.6H84.2V144H86.2ZM86.0883 98.0593L134.688 4.05927L132.912 3.14072L84.3117 97.1407L86.0883 98.0593ZM133.8 2.6H95.4V4.6H133.8V2.6ZM94.4912 3.1827L67.4912 61.9827L69.3088 62.8173L96.3088 4.01729L94.4912 3.1827ZM69.3076 61.9801L42.1076 3.18015L40.2924 4.01984L67.4924 62.8198L69.3076 61.9801ZM41.2 2.6H2.4V4.6H41.2V2.6ZM1.5117 4.05927L50.1117 98.0593L51.8883 97.1407L3.2883 3.14072L1.5117 4.05927ZM306.78 73.4C306.78 30.6276 274.512 0.599998 233.98 0.599998V2.6C273.448 2.6 304.78 31.7724 304.78 73.4H306.78ZM233.98 0.599998C193.657 0.599998 160.78 30.6187 160.78 73.4H162.78C162.78 31.7813 194.702 2.6 233.98 2.6V0.599998ZM160.78 73.4C160.78 116.178 193.653 146.4 233.98 146.4V144.4C194.706 144.4 162.78 115.022 162.78 73.4H160.78ZM233.98 146.4C274.314 146.4 306.78 116.171 306.78 73.4H304.78C304.78 115.029 273.246 144.4 233.98 144.4V146.4ZM197.78 73.4C197.78 61.0882 201.324 51.1489 207.569 44.2987C213.804 37.4587 222.822 33.6 233.98 33.6V31.6C222.337 31.6 212.755 35.6413 206.091 42.9513C199.436 50.2511 195.78 60.7118 195.78 73.4H197.78ZM233.98 33.6C244.933 33.6 253.902 37.4557 260.141 44.2987C266.388 51.151 269.98 61.0918 269.98 73.4H271.98C271.98 60.7082 268.272 50.249 261.619 42.9513C254.957 35.6442 245.426 31.6 233.98 31.6V33.6ZM269.98 73.4C269.98 85.5049 266.389 95.4485 260.138 102.354C253.896 109.249 244.925 113.2 233.98 113.2V115.2C245.434 115.2 254.963 111.051 261.621 103.696C268.27 96.3515 271.98 85.8951 271.98 73.4H269.98ZM233.98 113.2C222.829 113.2 213.811 109.246 207.571 102.354C201.322 95.4507 197.78 85.5084 197.78 73.4H195.78C195.78 85.8916 199.438 96.3493 206.088 103.696C212.749 111.054 222.33 115.2 233.98 115.2V113.2ZM478.206 96.6L479.165 96.8852L479.206 96.7456V96.6H478.206ZM478.206 64.8H479.206V63.8H478.206V64.8ZM403.806 64.8V63.8H402.806V64.8H403.806ZM403.806 90H402.806V91H403.806V90ZM447.206 90L448.156 90.3126L448.588 89H447.206V90ZM438.006 48L437.131 48.4841L437.417 49H438.006V48ZM475.806 48V49H477.096L476.775 47.7511L475.806 48ZM410.406 0.999992C389.165 0.999992 371.052 8.4893 358.248 21.3443C345.444 34.1989 338.006 52.3607 338.006 73.6H340.006C340.006 52.8392 347.269 35.2011 359.665 22.7557C372.061 10.3107 389.648 2.99999 410.406 2.99999V0.999992ZM338.006 73.6C338.006 94.8415 345.496 112.954 358.351 125.758C371.205 138.562 389.367 146 410.606 146V144C389.845 144 372.207 136.738 359.762 124.341C347.317 111.946 340.006 94.3585 340.006 73.6H338.006ZM410.606 146C448.102 146 471.854 121.456 479.165 96.8852L477.248 96.3148C470.158 120.144 447.111 144 410.606 144V146ZM479.206 96.6V64.8H477.206V96.6H479.206ZM478.206 63.8H403.806V65.8H478.206V63.8ZM402.806 64.8V90H404.806V64.8H402.806ZM403.806 91H447.206V89H403.806V91ZM446.256 89.6874C443.71 97.4252 439.568 103.439 434.037 107.52C428.508 111.601 421.524 113.8 413.206 113.8V115.8C421.888 115.8 429.304 113.499 435.225 109.13C441.144 104.761 445.503 98.3748 448.156 90.3126L446.256 89.6874ZM413.206 113.8C401.115 113.8 391.549 110.07 385.002 103.257C378.451 96.4394 374.806 86.4135 374.806 73.6H372.806C372.806 86.7865 376.562 97.3606 383.56 104.643C390.563 111.93 400.697 115.8 413.206 115.8V113.8ZM374.806 73.6C374.806 61.5979 378.395 51.8571 384.592 45.1274C390.782 38.4054 399.654 34.6 410.406 34.6V32.6C399.159 32.6 389.731 36.5945 383.121 43.7726C376.518 50.9429 372.806 61.2021 372.806 73.6H374.806ZM410.406 34.6C422.927 34.6 432.145 39.4698 437.131 48.4841L438.881 47.5159C433.468 37.7302 423.486 32.6 410.406 32.6V34.6ZM438.006 49H475.806V47H438.006V49ZM476.775 47.7511C469.242 18.4356 444.382 0.999992 410.406 0.999992V2.99999C443.63 2.99999 467.57 19.9644 474.838 48.2489L476.775 47.7511ZM554.75 97.6H555.75V97.3568L555.638 97.1407L554.75 97.6ZM554.75 144H553.75V145H554.75V144ZM588.95 144V145H589.95V144H588.95ZM588.95 97.6L588.062 97.1407L587.95 97.3568V97.6H588.95ZM637.55 3.6L638.438 4.05927L639.193 2.6H637.55V3.6ZM599.15 3.6V2.6H598.509L598.241 3.1827L599.15 3.6ZM572.15 62.4L571.242 62.8198L572.153 64.7891L573.059 62.8173L572.15 62.4ZM544.95 3.6L545.858 3.18015L545.589 2.6H544.95V3.6ZM506.15 3.6V2.6H504.507L505.262 4.05927L506.15 3.6ZM553.75 97.6V144H555.75V97.6H553.75ZM554.75 145H588.95V143H554.75V145ZM589.95 144V97.6H587.95V144H589.95ZM589.838 98.0593L638.438 4.05927L636.662 3.14072L588.062 97.1407L589.838 98.0593ZM637.55 2.6H599.15V4.6H637.55V2.6ZM598.241 3.1827L571.241 61.9827L573.059 62.8173L600.059 4.01729L598.241 3.1827ZM573.058 61.9801L545.858 3.18015L544.042 4.01984L571.242 62.8198L573.058 61.9801ZM544.95 2.6H506.15V4.6H544.95V2.6ZM505.262 4.05927L553.862 98.0593L555.638 97.1407L507.038 3.14072L505.262 4.05927ZM767.13 144L766.183 144.321L766.413 145H767.13V144ZM803.33 144V145H804.755L804.27 143.66L803.33 144ZM752.53 3.6L753.47 3.25976L753.231 2.6H752.53V3.6ZM712.93 3.6V2.6H712.228L711.989 3.25976L712.93 3.6ZM662.13 144L661.189 143.66L660.704 145H662.13V144ZM697.93 144V145H698.647L698.877 144.321L697.93 144ZM706.33 119.2V118.2H705.613L705.383 118.879L706.33 119.2ZM758.73 119.2L759.677 118.879L759.447 118.2H758.73V119.2ZM749.93 92.8V93.8H751.324L750.877 92.4794L749.93 92.8ZM715.33 92.8L714.381 92.4827L713.941 93.8H715.33V92.8ZM732.53 41.4L733.477 41.0794L732.524 38.2651L731.581 41.0827L732.53 41.4ZM767.13 145H803.33V143H767.13V145ZM804.27 143.66L753.47 3.25976L751.589 3.94023L802.389 144.34L804.27 143.66ZM752.53 2.6H712.93V4.6H752.53V2.6ZM711.989 3.25976L661.189 143.66L663.07 144.34L713.87 3.94023L711.989 3.25976ZM662.13 145H697.93V143H662.13V145ZM698.877 144.321L707.277 119.521L705.383 118.879L696.983 143.679L698.877 144.321ZM706.33 120.2H758.73V118.2H706.33V120.2ZM757.783 119.521L766.183 144.321L768.077 143.679L759.677 118.879L757.783 119.521ZM749.93 91.8H715.33V93.8H749.93V91.8ZM716.278 93.1173L733.478 41.7173L731.581 41.0827L714.381 92.4827L716.278 93.1173ZM731.583 41.7206L748.982 93.1207L750.877 92.4794L733.477 41.0794L731.583 41.7206Z" fill="#2D303E"/>
</svg>
