<svg width="15" height="10" viewBox="0 0 15 10" fill="none" xmlns="http://www.w3.org/2000/svg">
<path d="M7.16345 0H7.24264C7.97402 0.00266928 11.6799 0.0293622 12.6791 0.298069C12.9811 0.380077 13.2564 0.539926 13.4773 0.761641C13.6983 0.983356 13.8571 1.25917 13.9381 1.56153C14.0279 1.89964 14.0911 2.34718 14.1338 2.80897L14.1427 2.9015L14.1623 3.13284L14.1694 3.22538C14.2272 4.03862 14.2344 4.80025 14.2353 4.96663V5.03337C14.2344 5.20598 14.2264 6.01922 14.1623 6.86627L14.1552 6.95969L14.1472 7.05223C14.1027 7.56117 14.0368 8.06655 13.9381 8.43847C13.8574 8.74095 13.6986 9.0169 13.4776 9.23865C13.2566 9.4604 12.9813 9.62017 12.6791 9.70193C11.6469 9.97954 7.724 9.99911 7.18035 10H7.05401C6.77907 10 5.64196 9.99466 4.44968 9.95373L4.29842 9.94839L4.22102 9.94483L4.06887 9.93861L3.91672 9.93238C2.92909 9.88878 1.98861 9.81849 1.5553 9.70104C1.25322 9.61936 0.977903 9.45972 0.756939 9.23814C0.535976 9.01655 0.377121 8.74078 0.29629 8.43847C0.197526 8.06744 0.131684 7.56117 0.0871964 7.05223L0.0800783 6.9588L0.0729602 6.86627C0.0290485 6.26337 0.0047156 5.6592 0 5.05472L0 4.94528C0.00177952 4.75398 0.00889759 4.09289 0.0569446 3.36329L0.0631729 3.27164L0.0658422 3.22538L0.0729602 3.13284L0.0925349 2.9015L0.101433 2.80897C0.144141 2.34718 0.207314 1.89875 0.297179 1.56153C0.377875 1.25905 0.536669 0.983104 0.757641 0.761351C0.978614 0.539598 1.254 0.379831 1.55619 0.298069C1.9895 0.182401 2.92998 0.11122 3.91761 0.0667318L4.06887 0.0605036L4.22191 0.0551652L4.29842 0.0524959L4.45057 0.0462676C5.29736 0.0190184 6.1445 0.00389079 6.99172 0.0008898H7.16345V0ZM5.69446 2.85613V7.14298L9.39318 5.00044L5.69446 2.85613Z" fill="white"/>
</svg>
